<svg width="1032" height="592" viewBox="0 0 1032 592" fill="none" xmlns="http://www.w3.org/2000/svg">
<g clip-path="url(#clip0)">
<rect width="1032" height="592" fill="#F8F8F8"/>
<path d="M139.173 169H140.382V159.055H139.173V169ZM147.321 169H148.491V164.229C148.491 162.604 147.62 161.98 146.307 161.98C145.215 161.98 144.422 162.604 144.097 163.306H144.071V162.149H142.966V169H144.136V164.892C144.136 163.774 144.721 162.955 145.995 162.955C146.45 162.955 146.84 163.085 147.074 163.41C147.321 163.735 147.321 164.281 147.321 164.775V169ZM152.643 168.168C151.902 168.168 151.447 167.791 151.447 167.089C151.447 166.725 151.564 166.439 151.824 166.244C152.266 165.919 153.111 165.802 154.593 165.737V165.893C154.593 167.583 153.514 168.168 152.643 168.168ZM151.733 164.021C151.772 163.436 152.149 162.851 153.163 162.851C154.125 162.851 154.593 163.332 154.593 164.567V164.866C153.059 164.918 151.993 165.048 151.278 165.425C150.576 165.776 150.251 166.4 150.251 167.154C150.251 168.376 151.057 169.117 152.422 169.117C153.436 169.117 154.255 168.649 154.619 167.843H154.645C154.762 168.662 155.126 169.052 156.218 169.052H156.361V168.103C155.854 168.09 155.737 167.869 155.737 167.323V164.528C155.737 162.695 154.905 161.98 153.202 161.98C151.564 161.98 150.641 162.812 150.615 164.021H151.733ZM163.298 164.216C163.181 162.604 161.946 161.98 160.581 161.98C158.657 161.98 157.513 163.514 157.513 165.607C157.513 167.778 158.579 169.156 160.555 169.156C162.037 169.156 163.168 168.35 163.337 166.764H162.245C162.206 167.284 161.868 168.246 160.568 168.246C159.19 168.246 158.709 167.141 158.709 165.555C158.709 163.956 159.359 162.877 160.594 162.877C161.582 162.877 162.076 163.514 162.154 164.216H163.298ZM165.471 160.16V160.654C165.471 161.967 165.263 162.188 164.34 162.188H164.132V163.046H165.38V167.284C165.38 168.454 165.913 169.104 167.252 169.104C167.85 169.104 168.331 169.026 168.331 169.026V168.038C168.331 168.038 167.928 168.103 167.577 168.103C166.836 168.103 166.537 167.817 166.537 167.089V163.046H168.227V162.149H166.537V160.16H165.471ZM169.918 160.589H171.153V159.328H169.918V160.589ZM169.944 169H171.127V162.149H169.944V169ZM174.993 169H176.228L178.607 162.149H177.489L175.968 166.556C175.773 167.115 175.63 167.635 175.63 167.635H175.604C175.604 167.635 175.461 167.115 175.266 166.556L173.784 162.149H172.588L174.993 169ZM184.183 164.97H180.673C180.816 163.722 181.414 162.864 182.506 162.864C183.702 162.864 184.157 163.748 184.183 164.892V164.97ZM185.288 167.206H184.157C184.04 167.609 183.741 168.272 182.597 168.272C181.31 168.272 180.738 167.31 180.66 165.893H185.379V165.295C185.379 163.566 184.573 161.98 182.519 161.98C180.556 161.98 179.464 163.579 179.464 165.607C179.464 167.648 180.465 169.169 182.558 169.169C184.027 169.169 185.041 168.389 185.288 167.206Z" fill="#656664"/>
<path d="M136.624 252.775H140.953V251.722H136.624V248.134H141.356V247.055H135.415V257H136.624V252.775ZM145.524 257.169C147.448 257.169 148.605 255.713 148.605 253.568C148.605 251.449 147.591 249.98 145.55 249.98C143.639 249.98 142.469 251.449 142.469 253.568C142.469 255.713 143.509 257.169 145.524 257.169ZM145.537 250.877C146.85 250.877 147.396 251.904 147.396 253.568C147.396 255.245 146.837 256.259 145.563 256.259C144.237 256.259 143.678 255.245 143.678 253.568C143.678 251.904 144.289 250.877 145.537 250.877ZM155.757 252.216C155.64 250.604 154.405 249.98 153.04 249.98C151.116 249.98 149.972 251.514 149.972 253.607C149.972 255.778 151.038 257.156 153.014 257.156C154.496 257.156 155.627 256.35 155.796 254.764H154.704C154.665 255.284 154.327 256.246 153.027 256.246C151.649 256.246 151.168 255.141 151.168 253.555C151.168 251.956 151.818 250.877 153.053 250.877C154.041 250.877 154.535 251.514 154.613 252.216H155.757ZM158.684 250.149H157.527V254.92C157.527 256.532 158.411 257.169 159.724 257.169C160.816 257.169 161.57 256.532 161.882 255.83H161.908V257H163.026V250.149H161.856V253.854C161.856 255.362 161.258 256.207 159.984 256.207C159.529 256.207 159.165 256.064 158.931 255.752C158.684 255.427 158.684 254.855 158.684 254.361V250.149ZM169.96 251.865C169.843 250.669 168.998 249.98 167.516 249.98C165.956 249.98 165.033 250.851 165.033 252.06C165.033 253.256 165.683 253.763 166.905 253.958L167.958 254.114C168.894 254.27 169.037 254.569 169.037 255.115C169.037 255.83 168.452 256.272 167.516 256.272C166.307 256.272 166.008 255.596 165.956 255.063H164.812C164.903 256.532 166.073 257.169 167.49 257.169C169.05 257.169 170.168 256.428 170.168 255.05C170.168 253.867 169.648 253.282 168.218 253.061L167.165 252.905C166.476 252.788 166.138 252.528 166.138 251.969C166.138 251.332 166.671 250.864 167.477 250.864C168.283 250.864 168.777 251.254 168.842 251.865H169.96ZM176.172 252.97H172.662C172.805 251.722 173.403 250.864 174.495 250.864C175.691 250.864 176.146 251.748 176.172 252.892V252.97ZM177.277 255.206H176.146C176.029 255.609 175.73 256.272 174.586 256.272C173.299 256.272 172.727 255.31 172.649 253.893H177.368V253.295C177.368 251.566 176.562 249.98 174.508 249.98C172.545 249.98 171.453 251.579 171.453 253.607C171.453 255.648 172.454 257.169 174.547 257.169C176.016 257.169 177.03 256.389 177.277 255.206ZM183.63 254.036C183.63 255.284 182.889 256.246 181.68 256.246C180.315 256.246 179.86 255.115 179.86 253.568C179.86 251.956 180.458 250.916 181.771 250.916C182.863 250.916 183.63 251.852 183.63 253.308V254.036ZM184.774 246.756H183.604V251.189H183.578C183.305 250.552 182.642 249.98 181.615 249.98C179.886 249.98 178.664 251.267 178.664 253.62C178.664 256.259 180.003 257.169 181.459 257.169C182.512 257.169 183.253 256.545 183.617 255.869H183.656V257H184.774V246.756Z" fill="#656664"/>
<path d="M59.2719 340.775H63.6009V339.722H59.2719V336.134H64.0039V335.055H58.0629V345H59.2719V340.775ZM68.1719 345.169C70.0959 345.169 71.2529 343.713 71.2529 341.568C71.2529 339.449 70.2389 337.98 68.1979 337.98C66.2869 337.98 65.1169 339.449 65.1169 341.568C65.1169 343.713 66.1569 345.169 68.1719 345.169ZM68.1849 338.877C69.4979 338.877 70.0439 339.904 70.0439 341.568C70.0439 343.245 69.4849 344.259 68.2109 344.259C66.8849 344.259 66.3259 343.245 66.3259 341.568C66.3259 339.904 66.9369 338.877 68.1849 338.877ZM78.4048 340.216C78.2878 338.604 77.0528 337.98 75.6878 337.98C73.7638 337.98 72.6198 339.514 72.6198 341.607C72.6198 343.778 73.6858 345.156 75.6618 345.156C77.1438 345.156 78.2748 344.35 78.4438 342.764H77.3518C77.3128 343.284 76.9748 344.246 75.6748 344.246C74.2968 344.246 73.8158 343.141 73.8158 341.555C73.8158 339.956 74.4658 338.877 75.7008 338.877C76.6888 338.877 77.1828 339.514 77.2608 340.216H78.4048ZM81.3315 338.149H80.1745V342.92C80.1745 344.532 81.0585 345.169 82.3715 345.169C83.4635 345.169 84.2175 344.532 84.5295 343.83H84.5555V345H85.6735V338.149H84.5035V341.854C84.5035 343.362 83.9055 344.207 82.6315 344.207C82.1765 344.207 81.8125 344.064 81.5785 343.752C81.3315 343.427 81.3315 342.855 81.3315 342.361V338.149ZM92.6077 339.865C92.4907 338.669 91.6457 337.98 90.1637 337.98C88.6037 337.98 87.6807 338.851 87.6807 340.06C87.6807 341.256 88.3307 341.763 89.5527 341.958L90.6057 342.114C91.5417 342.27 91.6847 342.569 91.6847 343.115C91.6847 343.83 91.0997 344.272 90.1637 344.272C88.9547 344.272 88.6557 343.596 88.6037 343.063H87.4597C87.5507 344.532 88.7207 345.169 90.1377 345.169C91.6977 345.169 92.8157 344.428 92.8157 343.05C92.8157 341.867 92.2957 341.282 90.8657 341.061L89.8127 340.905C89.1237 340.788 88.7857 340.528 88.7857 339.969C88.7857 339.332 89.3187 338.864 90.1247 338.864C90.9307 338.864 91.4247 339.254 91.4897 339.865H92.6077ZM98.8193 340.97H95.3093C95.4523 339.722 96.0503 338.864 97.1423 338.864C98.3383 338.864 98.7933 339.748 98.8193 340.892V340.97ZM99.9243 343.206H98.7933C98.6763 343.609 98.3773 344.272 97.2333 344.272C95.9463 344.272 95.3743 343.31 95.2963 341.893H100.015V341.295C100.015 339.566 99.2093 337.98 97.1553 337.98C95.1923 337.98 94.1003 339.579 94.1003 341.607C94.1003 343.648 95.1013 345.169 97.1943 345.169C98.6633 345.169 99.6773 344.389 99.9243 343.206ZM106.277 342.036C106.277 343.284 105.536 344.246 104.327 344.246C102.962 344.246 102.507 343.115 102.507 341.568C102.507 339.956 103.105 338.916 104.418 338.916C105.51 338.916 106.277 339.852 106.277 341.308V342.036ZM107.421 334.756H106.251V339.189H106.225C105.952 338.552 105.289 337.98 104.262 337.98C102.533 337.98 101.311 339.267 101.311 341.62C101.311 344.259 102.65 345.169 104.106 345.169C105.159 345.169 105.9 344.545 106.264 343.869H106.303V345H107.421V334.756ZM116.817 340.853H119.287V339.852H116.817V337.369H115.764V339.852H113.307V340.853H115.764V343.349H116.817V340.853ZM126.311 341.828V341.1C126.311 339.943 127.052 338.916 128.261 338.916C129.665 338.916 130.094 340.021 130.094 341.477C130.094 343.271 129.496 344.246 128.274 344.246C126.974 344.246 126.311 343.18 126.311 341.828ZM125.18 347.444H126.35V343.999H126.376C126.636 344.61 127.442 345.169 128.443 345.169C129.99 345.169 131.277 343.973 131.277 341.477C131.277 338.877 129.977 337.98 128.521 337.98C127.481 337.98 126.74 338.565 126.337 339.293H126.311V338.149H125.18V347.444ZM135.698 345.169C137.622 345.169 138.779 343.713 138.779 341.568C138.779 339.449 137.765 337.98 135.724 337.98C133.813 337.98 132.643 339.449 132.643 341.568C132.643 343.713 133.683 345.169 135.698 345.169ZM135.711 338.877C137.024 338.877 137.57 339.904 137.57 341.568C137.57 343.245 137.011 344.259 135.737 344.259C134.411 344.259 133.852 343.245 133.852 341.568C133.852 339.904 134.463 338.877 135.711 338.877ZM141.761 341.828V341.1C141.761 339.943 142.502 338.916 143.711 338.916C145.115 338.916 145.544 340.021 145.544 341.477C145.544 343.271 144.946 344.246 143.724 344.246C142.424 344.246 141.761 343.18 141.761 341.828ZM140.63 347.444H141.8V343.999H141.826C142.086 344.61 142.892 345.169 143.893 345.169C145.44 345.169 146.727 343.973 146.727 341.477C146.727 338.877 145.427 337.98 143.971 337.98C142.931 337.98 142.19 338.565 141.787 339.293H141.761V338.149H140.63V347.444ZM149.708 338.149H148.551V342.92C148.551 344.532 149.435 345.169 150.748 345.169C151.84 345.169 152.594 344.532 152.906 343.83H152.932V345H154.05V338.149H152.88V341.854C152.88 343.362 152.282 344.207 151.008 344.207C150.553 344.207 150.189 344.064 149.955 343.752C149.708 343.427 149.708 342.855 149.708 342.361V338.149ZM156.487 345H157.657V334.756H156.487V345ZM161.797 344.168C161.056 344.168 160.601 343.791 160.601 343.089C160.601 342.725 160.718 342.439 160.978 342.244C161.42 341.919 162.265 341.802 163.747 341.737V341.893C163.747 343.583 162.668 344.168 161.797 344.168ZM160.887 340.021C160.926 339.436 161.303 338.851 162.317 338.851C163.279 338.851 163.747 339.332 163.747 340.567V340.866C162.213 340.918 161.147 341.048 160.432 341.425C159.73 341.776 159.405 342.4 159.405 343.154C159.405 344.376 160.211 345.117 161.576 345.117C162.59 345.117 163.409 344.649 163.773 343.843H163.799C163.916 344.662 164.28 345.052 165.372 345.052H165.515V344.103C165.008 344.09 164.891 343.869 164.891 343.323V340.528C164.891 338.695 164.059 337.98 162.356 337.98C160.718 337.98 159.795 338.812 159.769 340.021H160.887ZM167.591 336.16V336.654C167.591 337.967 167.383 338.188 166.46 338.188H166.252V339.046H167.5V343.284C167.5 344.454 168.033 345.104 169.372 345.104C169.97 345.104 170.451 345.026 170.451 345.026V344.038C170.451 344.038 170.048 344.103 169.697 344.103C168.956 344.103 168.657 343.817 168.657 343.089V339.046H170.347V338.149H168.657V336.16H167.591ZM176.172 340.97H172.662C172.805 339.722 173.403 338.864 174.495 338.864C175.691 338.864 176.146 339.748 176.172 340.892V340.97ZM177.277 343.206H176.146C176.029 343.609 175.73 344.272 174.586 344.272C173.299 344.272 172.727 343.31 172.649 341.893H177.368V341.295C177.368 339.566 176.562 337.98 174.508 337.98C172.545 337.98 171.453 339.579 171.453 341.607C171.453 343.648 172.454 345.169 174.547 345.169C176.016 345.169 177.03 344.389 177.277 343.206ZM183.63 342.036C183.63 343.284 182.889 344.246 181.68 344.246C180.315 344.246 179.86 343.115 179.86 341.568C179.86 339.956 180.458 338.916 181.771 338.916C182.863 338.916 183.63 339.852 183.63 341.308V342.036ZM184.774 334.756H183.604V339.189H183.578C183.305 338.552 182.642 337.98 181.615 337.98C179.886 337.98 178.664 339.267 178.664 341.62C178.664 344.259 180.003 345.169 181.459 345.169C182.512 345.169 183.253 344.545 183.617 343.869H183.656V345H184.774V334.756Z" fill="#656664"/>
<path d="M132.08 424.264H132.106C132.106 424.264 132.288 424.901 132.496 425.499L133.744 429.061H130.442L131.677 425.499C131.872 424.94 132.054 424.329 132.08 424.264ZM135.122 433H136.409L132.834 423.055H131.404L127.868 433H129.077L130.104 430.036H134.082L135.122 433ZM143.252 428.216C143.135 426.604 141.9 425.98 140.535 425.98C138.611 425.98 137.467 427.514 137.467 429.607C137.467 431.778 138.533 433.156 140.509 433.156C141.991 433.156 143.122 432.35 143.291 430.764H142.199C142.16 431.284 141.822 432.246 140.522 432.246C139.144 432.246 138.663 431.141 138.663 429.555C138.663 427.956 139.313 426.877 140.548 426.877C141.536 426.877 142.03 427.514 142.108 428.216H143.252ZM145.425 424.16V424.654C145.425 425.967 145.217 426.188 144.294 426.188H144.086V427.046H145.334V431.284C145.334 432.454 145.867 433.104 147.206 433.104C147.804 433.104 148.285 433.026 148.285 433.026V432.038C148.285 432.038 147.882 432.103 147.531 432.103C146.79 432.103 146.491 431.817 146.491 431.089V427.046H148.181V426.149H146.491V424.16H145.425ZM149.872 424.589H151.107V423.328H149.872V424.589ZM149.898 433H151.081V426.149H149.898V433ZM154.947 433H156.182L158.561 426.149H157.443L155.922 430.556C155.727 431.115 155.584 431.635 155.584 431.635H155.558C155.558 431.635 155.415 431.115 155.22 430.556L153.738 426.149H152.542L154.947 433ZM161.797 432.168C161.056 432.168 160.601 431.791 160.601 431.089C160.601 430.725 160.718 430.439 160.978 430.244C161.42 429.919 162.265 429.802 163.747 429.737V429.893C163.747 431.583 162.668 432.168 161.797 432.168ZM160.887 428.021C160.926 427.436 161.303 426.851 162.317 426.851C163.279 426.851 163.747 427.332 163.747 428.567V428.866C162.213 428.918 161.147 429.048 160.432 429.425C159.73 429.776 159.405 430.4 159.405 431.154C159.405 432.376 160.211 433.117 161.576 433.117C162.59 433.117 163.409 432.649 163.773 431.843H163.799C163.916 432.662 164.28 433.052 165.372 433.052H165.515V432.103C165.008 432.09 164.891 431.869 164.891 431.323V428.528C164.891 426.695 164.059 425.98 162.356 425.98C160.718 425.98 159.795 426.812 159.769 428.021H160.887ZM167.591 424.16V424.654C167.591 425.967 167.383 426.188 166.46 426.188H166.252V427.046H167.5V431.284C167.5 432.454 168.033 433.104 169.372 433.104C169.97 433.104 170.451 433.026 170.451 433.026V432.038C170.451 432.038 170.048 432.103 169.697 432.103C168.956 432.103 168.657 431.817 168.657 431.089V427.046H170.347V426.149H168.657V424.16H167.591ZM176.172 428.97H172.662C172.805 427.722 173.403 426.864 174.495 426.864C175.691 426.864 176.146 427.748 176.172 428.892V428.97ZM177.277 431.206H176.146C176.029 431.609 175.73 432.272 174.586 432.272C173.299 432.272 172.727 431.31 172.649 429.893H177.368V429.295C177.368 427.566 176.562 425.98 174.508 425.98C172.545 425.98 171.453 427.579 171.453 429.607C171.453 431.648 172.454 433.169 174.547 433.169C176.016 433.169 177.03 432.389 177.277 431.206ZM183.63 430.036C183.63 431.284 182.889 432.246 181.68 432.246C180.315 432.246 179.86 431.115 179.86 429.568C179.86 427.956 180.458 426.916 181.771 426.916C182.863 426.916 183.63 427.852 183.63 429.308V430.036ZM184.774 422.756H183.604V427.189H183.578C183.305 426.552 182.642 425.98 181.615 425.98C179.886 425.98 178.664 427.267 178.664 429.62C178.664 432.259 180.003 433.169 181.459 433.169C182.512 433.169 183.253 432.545 183.617 431.869H183.656V433H184.774V422.756Z" fill="#656664"/>
<path d="M221.322 92.956C221.214 90.652 219.738 89.032 216.426 89.032C213.294 89.032 211.458 90.76 211.458 93.118C211.458 95.17 212.7 96.52 215.022 96.952L217.038 97.33C218.568 97.618 219.126 98.23 219.126 99.274C219.126 100.444 218.37 101.398 216.426 101.398C214.662 101.398 213.762 100.372 213.6 99.076H210.99C211.134 101.74 213.042 103.27 216.372 103.27C219.81 103.27 221.718 101.65 221.718 98.86C221.718 96.844 220.62 95.548 218.1 95.08L216.048 94.702C214.626 94.432 214.068 93.838 214.068 92.794C214.068 91.714 214.932 90.886 216.408 90.886C217.992 90.886 218.658 91.876 218.766 92.956H221.322ZM230.034 97.276H225.966C226.128 95.71 226.812 94.756 228.054 94.756C229.386 94.756 229.944 95.728 230.034 97.168V97.276ZM232.392 100.3H230.016C229.854 100.876 229.476 101.56 228.18 101.56C226.758 101.56 226.056 100.606 225.948 98.788H232.5V98.014C232.5 95.332 231.222 93.172 228.072 93.172C225.174 93.172 223.5 95.296 223.5 98.212C223.5 101.218 225.066 103.234 228.09 103.234C230.556 103.234 232.086 102.136 232.392 100.3ZM237.702 101.506C236.82 101.506 236.298 101.002 236.298 100.21C236.298 99.76 236.442 99.4 236.784 99.166C237.288 98.806 238.188 98.662 239.88 98.572V98.842C239.88 100.714 238.764 101.506 237.702 101.506ZM236.64 96.178C236.676 95.422 237.144 94.792 238.26 94.792C239.358 94.792 239.862 95.386 239.862 96.682V97.168C237.792 97.258 236.334 97.384 235.326 97.906C234.354 98.41 233.886 99.22 233.886 100.318C233.886 102.082 235.092 103.126 237.054 103.126C238.44 103.126 239.448 102.568 240.006 101.578H240.06C240.312 102.676 240.924 103.036 242.346 103.036H243.03V101.29C242.4 101.29 242.22 101.056 242.22 100.444V96.916C242.22 94.36 241.122 93.19 238.278 93.19C235.848 93.19 234.39 94.342 234.318 96.178H236.64ZM244.96 103H247.372V98.086C247.372 96.232 248.416 95.512 250.126 95.512H250.576V93.244H250.414C249.082 93.244 247.786 94.054 247.282 95.35H247.246V93.406H244.96V103ZM260.481 96.664C260.373 94.288 258.609 93.172 256.269 93.172C253.371 93.172 251.607 95.17 251.607 98.212C251.607 101.326 253.263 103.234 256.233 103.234C258.609 103.234 260.391 102.01 260.535 99.598H258.195C258.159 100.444 257.691 101.524 256.251 101.524C254.523 101.524 254.091 99.904 254.091 98.176C254.091 96.34 254.703 94.846 256.269 94.846C257.457 94.846 258.015 95.656 258.105 96.664H260.481ZM268.731 103H271.161V96.61C271.161 94.288 270.117 93.19 267.975 93.19C266.391 93.19 265.383 94.072 264.969 94.954H264.933V88.816H262.503V103H264.933V97.384C264.933 95.926 265.653 95.008 267.093 95.008C267.669 95.008 268.137 95.188 268.425 95.584C268.713 95.98 268.731 96.592 268.731 97.276V103ZM280.9 97.492H286.498V95.548H280.9V91.21H286.894V89.23H278.38V103H280.9V97.492ZM289.064 103H291.494V88.816H289.064V103ZM298.263 103.234C301.071 103.234 302.925 101.29 302.925 98.194C302.925 95.098 301.179 93.172 298.281 93.172C295.383 93.172 293.601 95.116 293.601 98.194C293.601 101.29 295.293 103.234 298.263 103.234ZM298.263 94.846C299.829 94.846 300.423 96.196 300.423 98.194C300.423 100.174 299.847 101.542 298.281 101.542C296.733 101.542 296.103 100.228 296.103 98.194C296.103 96.232 296.733 94.846 298.263 94.846ZM306.738 103H309.078L310.464 98.554C310.788 97.492 311.148 95.944 311.148 95.944H311.184C311.184 95.944 311.49 97.474 311.814 98.554L313.182 103H315.576L318.42 93.406H316.242L314.766 98.824C314.568 99.652 314.388 100.552 314.388 100.552H314.334C314.334 100.552 314.154 99.652 313.902 98.824L312.264 93.406H310.176L308.538 98.824C308.286 99.652 308.106 100.552 308.106 100.552H308.052C308.052 100.552 307.926 99.652 307.71 98.824L306.234 93.406H303.876L306.738 103Z" fill="#3B3B3A"/>
<g filter="url(#filter0_d)">
<rect x="210" y="141" width="648" height="48" fill="white"/>
<rect x="209.5" y="140.5" width="649" height="49" stroke="#E5E3E3"/>
</g>
<path fill-rule="evenodd" clip-rule="evenodd" d="M831.545 156.5C828.207 156.5 825.5 159.207 825.5 162.545C825.5 165.884 828.207 168.591 831.545 168.591C834.884 168.591 837.591 165.884 837.591 162.545C837.591 159.207 834.884 156.5 831.545 156.5ZM824.5 162.545C824.5 158.654 827.654 155.5 831.545 155.5C835.437 155.5 838.591 158.654 838.591 162.545C838.591 166.437 835.437 169.591 831.545 169.591C827.654 169.591 824.5 166.437 824.5 162.545Z" fill="#979593"/>
<path fill-rule="evenodd" clip-rule="evenodd" d="M836.101 167.101C836.296 166.906 836.613 166.906 836.808 167.101L843.354 173.646C843.549 173.842 843.549 174.158 843.354 174.353C843.158 174.549 842.842 174.549 842.647 174.353L836.101 167.808C835.906 167.613 835.906 167.296 836.101 167.101Z" fill="#979593"/>
<path d="M235.872 161.04C235.76 158.96 234.416 157.584 231.824 157.584C229.312 157.584 227.68 159.024 227.68 161.008C227.68 162.608 228.528 163.888 230.928 164.336L232.64 164.64C234.144 164.896 234.72 165.632 234.72 166.688C234.72 167.984 234 169.04 231.824 169.04C229.856 169.04 228.944 167.872 228.768 166.56H227.216C227.344 168.72 228.96 170.24 231.792 170.24C234.72 170.24 236.24 168.8 236.24 166.56C236.24 164.816 235.408 163.648 233.024 163.216L231.296 162.912C229.856 162.64 229.248 162 229.248 160.88C229.248 159.712 230.144 158.768 231.808 158.768C233.52 158.768 234.208 159.84 234.352 161.04H235.872ZM243.982 165.04H239.662C239.838 163.504 240.574 162.448 241.918 162.448C243.39 162.448 243.95 163.536 243.982 164.944V165.04ZM245.342 167.792H243.95C243.806 168.288 243.438 169.104 242.03 169.104C240.446 169.104 239.742 167.92 239.646 166.176H245.454V165.44C245.454 163.312 244.462 161.36 241.934 161.36C239.518 161.36 238.174 163.328 238.174 165.824C238.174 168.336 239.406 170.208 241.982 170.208C243.79 170.208 245.038 169.248 245.342 167.792ZM249.899 168.976C248.987 168.976 248.427 168.512 248.427 167.648C248.427 167.2 248.571 166.848 248.891 166.608C249.435 166.208 250.475 166.064 252.299 165.984V166.176C252.299 168.256 250.971 168.976 249.899 168.976ZM248.779 163.872C248.827 163.152 249.291 162.432 250.539 162.432C251.723 162.432 252.299 163.024 252.299 164.544V164.912C250.411 164.976 249.099 165.136 248.219 165.6C247.355 166.032 246.955 166.8 246.955 167.728C246.955 169.232 247.947 170.144 249.627 170.144C250.875 170.144 251.883 169.568 252.331 168.576H252.363C252.507 169.584 252.955 170.064 254.299 170.064H254.475V168.896C253.851 168.88 253.707 168.608 253.707 167.936V164.496C253.707 162.24 252.683 161.36 250.587 161.36C248.571 161.36 247.435 162.384 247.403 163.872H248.779ZM256.567 170H258.007V165.408C258.007 163.776 258.999 162.912 260.503 162.912H260.775V161.408H260.631C259.399 161.408 258.343 162.272 257.959 163.152H257.927V161.568H256.567V170ZM269.028 164.112C268.884 162.128 267.364 161.36 265.684 161.36C263.316 161.36 261.908 163.248 261.908 165.824C261.908 168.496 263.22 170.192 265.652 170.192C267.476 170.192 268.868 169.2 269.076 167.248H267.732C267.684 167.888 267.268 169.072 265.668 169.072C263.972 169.072 263.38 167.712 263.38 165.76C263.38 163.792 264.18 162.464 265.7 162.464C266.916 162.464 267.524 163.248 267.62 164.112H269.028ZM276.52 170H277.96V164.128C277.96 162.128 276.888 161.36 275.272 161.36C273.896 161.36 273 162.144 272.632 162.96H272.6V157.392H271.16V170H272.6V164.944C272.6 163.568 273.32 162.56 274.888 162.56C275.448 162.56 275.928 162.72 276.216 163.12C276.52 163.52 276.52 164.176 276.52 164.784V170Z" fill="#979593"/>
<g filter="url(#filter1_d)">
<rect x="210" y="229" width="648" height="48" fill="white"/>
<rect x="209" y="228" width="650" height="50" stroke="#0F4FA8" stroke-width="2"/>
</g>
<path fill-rule="evenodd" clip-rule="evenodd" d="M834.545 244.5C831.207 244.5 828.5 247.207 828.5 250.545C828.5 253.884 831.207 256.591 834.545 256.591C837.884 256.591 840.591 253.884 840.591 250.545C840.591 247.207 837.884 244.5 834.545 244.5ZM827.5 250.545C827.5 246.654 830.654 243.5 834.545 243.5C838.437 243.5 841.591 246.654 841.591 250.545C841.591 254.437 838.437 257.591 834.545 257.591C830.654 257.591 827.5 254.437 827.5 250.545Z" fill="#979593"/>
<path fill-rule="evenodd" clip-rule="evenodd" d="M839.101 255.101C839.296 254.906 839.613 254.906 839.808 255.101L846.354 261.646C846.549 261.842 846.549 262.158 846.354 262.353C846.158 262.549 845.842 262.549 845.647 262.353L839.101 255.808C838.906 255.613 838.906 255.296 839.101 255.101Z" fill="#979593"/>
<rect x="226" y="243" width="1" height="20" fill="black"/>
<g filter="url(#filter2_d)">
<rect x="210" y="317" width="648" height="48" fill="white"/>
<rect x="209" y="316" width="650" height="50" stroke="#0F4FA8" stroke-width="2"/>
</g>
<rect x="810" y="317" width="48" height="48" fill="#0F4FA8"/>
<path fill-rule="evenodd" clip-rule="evenodd" d="M831.545 332.5C828.207 332.5 825.5 335.207 825.5 338.545C825.5 341.884 828.207 344.591 831.545 344.591C834.884 344.591 837.591 341.884 837.591 338.545C837.591 335.207 834.884 332.5 831.545 332.5ZM824.5 338.545C824.5 334.654 827.654 331.5 831.545 331.5C835.437 331.5 838.591 334.654 838.591 338.545C838.591 342.437 835.437 345.591 831.545 345.591C827.654 345.591 824.5 342.437 824.5 338.545Z" fill="white"/>
<path fill-rule="evenodd" clip-rule="evenodd" d="M836.101 343.101C836.296 342.906 836.613 342.906 836.808 343.101L843.354 349.646C843.549 349.842 843.549 350.158 843.354 350.353C843.158 350.549 842.842 350.549 842.647 350.353L836.101 343.808C835.906 343.613 835.906 343.296 836.101 343.101Z" fill="white"/>
<rect x="249" y="331" width="1" height="20" fill="black"/>
<path d="M230.512 346.208C232.88 346.208 234.304 344.416 234.304 341.776C234.304 339.168 233.056 337.36 230.544 337.36C228.192 337.36 226.752 339.168 226.752 341.776C226.752 344.416 228.032 346.208 230.512 346.208ZM230.528 338.464C232.144 338.464 232.816 339.728 232.816 341.776C232.816 343.84 232.128 345.088 230.56 345.088C228.928 345.088 228.24 343.84 228.24 341.776C228.24 339.728 228.992 338.464 230.528 338.464ZM236.582 346H238.022V333.392H236.582V346ZM246.076 341.04H241.756C241.932 339.504 242.668 338.448 244.012 338.448C245.484 338.448 246.044 339.536 246.076 340.944V341.04ZM247.436 343.792H246.044C245.9 344.288 245.532 345.104 244.124 345.104C242.54 345.104 241.836 343.92 241.74 342.176H247.548V341.44C247.548 339.312 246.556 337.36 244.028 337.36C241.612 337.36 240.268 339.328 240.268 341.824C240.268 344.336 241.5 346.208 244.076 346.208C245.884 346.208 247.132 345.248 247.436 343.792Z" fill="black"/>
<path fill-rule="evenodd" clip-rule="evenodd" d="M793.354 333.646C793.549 333.842 793.549 334.158 793.354 334.354L779.354 348.354C779.158 348.549 778.842 348.549 778.646 348.354C778.451 348.158 778.451 347.842 778.646 347.646L792.646 333.646C792.842 333.451 793.158 333.451 793.354 333.646Z" fill="#656664"/>
<path fill-rule="evenodd" clip-rule="evenodd" d="M778.646 333.646C778.842 333.451 779.158 333.451 779.354 333.646L793.354 347.646C793.549 347.842 793.549 348.158 793.354 348.354C793.158 348.549 792.842 348.549 792.646 348.354L778.646 334.354C778.451 334.158 778.451 333.842 778.646 333.646Z" fill="#656664"/>
<g filter="url(#filter3_d)">
<rect x="210" y="405" width="648" height="48" fill="white"/>
<rect x="209.5" y="404.5" width="649" height="49" stroke="#E5E3E3"/>
</g>
<path d="M230.512 434.208C232.88 434.208 234.304 432.416 234.304 429.776C234.304 427.168 233.056 425.36 230.544 425.36C228.192 425.36 226.752 427.168 226.752 429.776C226.752 432.416 228.032 434.208 230.512 434.208ZM230.528 426.464C232.144 426.464 232.816 427.728 232.816 429.776C232.816 431.84 232.128 433.088 230.56 433.088C228.928 433.088 228.24 431.84 228.24 429.776C228.24 427.728 228.992 426.464 230.528 426.464ZM236.582 434H238.022V421.392H236.582V434ZM246.076 429.04H241.756C241.932 427.504 242.668 426.448 244.012 426.448C245.484 426.448 246.044 427.536 246.076 428.944V429.04ZM247.436 431.792H246.044C245.9 432.288 245.532 433.104 244.124 433.104C242.54 433.104 241.836 431.92 241.74 430.176H247.548V429.44C247.548 427.312 246.556 425.36 244.028 425.36C241.612 425.36 240.268 427.328 240.268 429.824C240.268 432.336 241.5 434.208 244.076 434.208C245.884 434.208 247.132 433.248 247.436 431.792Z" fill="black"/>
<rect x="810" y="405" width="48" height="48" fill="#0F4FA8"/>
<path fill-rule="evenodd" clip-rule="evenodd" d="M831.545 420.5C828.207 420.5 825.5 423.207 825.5 426.545C825.5 429.884 828.207 432.591 831.545 432.591C834.884 432.591 837.591 429.884 837.591 426.545C837.591 423.207 834.884 420.5 831.545 420.5ZM824.5 426.545C824.5 422.654 827.654 419.5 831.545 419.5C835.437 419.5 838.591 422.654 838.591 426.545C838.591 430.437 835.437 433.591 831.545 433.591C827.654 433.591 824.5 430.437 824.5 426.545Z" fill="white"/>
<path fill-rule="evenodd" clip-rule="evenodd" d="M836.101 431.101C836.296 430.906 836.613 430.906 836.808 431.101L843.354 437.646C843.549 437.842 843.549 438.158 843.354 438.353C843.158 438.549 842.842 438.549 842.647 438.353L836.101 431.808C835.906 431.613 835.906 431.296 836.101 431.101Z" fill="white"/>
<path fill-rule="evenodd" clip-rule="evenodd" d="M793.354 421.646C793.549 421.842 793.549 422.158 793.354 422.354L779.354 436.354C779.158 436.549 778.842 436.549 778.646 436.354C778.451 436.158 778.451 435.842 778.646 435.646L792.646 421.646C792.842 421.451 793.158 421.451 793.354 421.646Z" fill="#656664"/>
<path fill-rule="evenodd" clip-rule="evenodd" d="M778.646 421.646C778.842 421.451 779.158 421.451 779.354 421.646L793.354 435.646C793.549 435.842 793.549 436.158 793.354 436.354C793.158 436.549 792.842 436.549 792.646 436.354L778.646 422.354C778.451 422.158 778.451 421.842 778.646 421.646Z" fill="#656664"/>
</g>
<defs>
<filter id="filter0_d" x="201" y="136" width="666" height="66" filterUnits="userSpaceOnUse" color-interpolation-filters="sRGB">
<feFlood flood-opacity="0" result="BackgroundImageFix"/>
<feColorMatrix in="SourceAlpha" type="matrix" values="0 0 0 0 0 0 0 0 0 0 0 0 0 0 0 0 0 0 127 0"/>
<feOffset dy="4"/>
<feGaussianBlur stdDeviation="4"/>
<feColorMatrix type="matrix" values="0 0 0 0 0 0 0 0 0 0 0 0 0 0 0 0 0 0 0.1 0"/>
<feBlend mode="normal" in2="BackgroundImageFix" result="effect1_dropShadow"/>
<feBlend mode="normal" in="SourceGraphic" in2="effect1_dropShadow" result="shape"/>
</filter>
<filter id="filter1_d" x="200" y="223" width="668" height="68" filterUnits="userSpaceOnUse" color-interpolation-filters="sRGB">
<feFlood flood-opacity="0" result="BackgroundImageFix"/>
<feColorMatrix in="SourceAlpha" type="matrix" values="0 0 0 0 0 0 0 0 0 0 0 0 0 0 0 0 0 0 127 0"/>
<feOffset dy="4"/>
<feGaussianBlur stdDeviation="4"/>
<feColorMatrix type="matrix" values="0 0 0 0 0 0 0 0 0 0 0 0 0 0 0 0 0 0 0.1 0"/>
<feBlend mode="normal" in2="BackgroundImageFix" result="effect1_dropShadow"/>
<feBlend mode="normal" in="SourceGraphic" in2="effect1_dropShadow" result="shape"/>
</filter>
<filter id="filter2_d" x="200" y="311" width="668" height="68" filterUnits="userSpaceOnUse" color-interpolation-filters="sRGB">
<feFlood flood-opacity="0" result="BackgroundImageFix"/>
<feColorMatrix in="SourceAlpha" type="matrix" values="0 0 0 0 0 0 0 0 0 0 0 0 0 0 0 0 0 0 127 0"/>
<feOffset dy="4"/>
<feGaussianBlur stdDeviation="4"/>
<feColorMatrix type="matrix" values="0 0 0 0 0 0 0 0 0 0 0 0 0 0 0 0 0 0 0.1 0"/>
<feBlend mode="normal" in2="BackgroundImageFix" result="effect1_dropShadow"/>
<feBlend mode="normal" in="SourceGraphic" in2="effect1_dropShadow" result="shape"/>
</filter>
<filter id="filter3_d" x="201" y="400" width="666" height="66" filterUnits="userSpaceOnUse" color-interpolation-filters="sRGB">
<feFlood flood-opacity="0" result="BackgroundImageFix"/>
<feColorMatrix in="SourceAlpha" type="matrix" values="0 0 0 0 0 0 0 0 0 0 0 0 0 0 0 0 0 0 127 0"/>
<feOffset dy="4"/>
<feGaussianBlur stdDeviation="4"/>
<feColorMatrix type="matrix" values="0 0 0 0 0 0 0 0 0 0 0 0 0 0 0 0 0 0 0.1 0"/>
<feBlend mode="normal" in2="BackgroundImageFix" result="effect1_dropShadow"/>
<feBlend mode="normal" in="SourceGraphic" in2="effect1_dropShadow" result="shape"/>
</filter>
<clipPath id="clip0">
<rect width="1032" height="592" fill="white"/>
</clipPath>
</defs>
</svg>
