<svg width="383" height="350" viewBox="0 0 383 350" fill="none" xmlns="http://www.w3.org/2000/svg">
<rect x="0.5" y="0.5" width="382" height="349" fill="white" stroke="#E5E3E3"/>
<g filter="url(#filter0_i)">
<rect x="1" y="1" width="381" height="56" fill="white"/>
</g>
<g filter="url(#filter1_i)">
<rect x="1" y="57" width="381" height="180" fill="white"/>
</g>
<g filter="url(#filter2_i)">
<rect x="1" y="237" width="381" height="56" fill="white"/>
</g>
<path d="M52.164 28.408H56.938V33H58.898V22.29H56.938V26.854H52.164V22.29H50.204V33H52.164V28.408ZM65.6892 28.548H62.5252C62.6512 27.33 63.1832 26.588 64.1492 26.588C65.1852 26.588 65.6192 27.344 65.6892 28.464V28.548ZM67.5232 30.9H65.6752C65.5492 31.348 65.2552 31.88 64.2472 31.88C63.1412 31.88 62.5952 31.138 62.5112 29.724H67.6072V29.122C67.6072 27.036 66.6132 25.356 64.1632 25.356C61.9092 25.356 60.6072 27.008 60.6072 29.276C60.6072 31.614 61.8252 33.182 64.1772 33.182C66.0952 33.182 67.2852 32.328 67.5232 30.9ZM71.6533 31.838C70.9673 31.838 70.5613 31.446 70.5613 30.83C70.5613 30.48 70.6733 30.2 70.9393 30.018C71.3313 29.738 72.0313 29.626 73.3473 29.556V29.766C73.3473 31.222 72.4793 31.838 71.6533 31.838ZM70.8273 27.694C70.8553 27.106 71.2193 26.616 72.0873 26.616C72.9413 26.616 73.3333 27.078 73.3333 28.086V28.464C71.7233 28.534 70.5893 28.632 69.8053 29.038C69.0493 29.43 68.6853 30.06 68.6853 30.914C68.6853 32.286 69.6233 33.098 71.1493 33.098C72.2273 33.098 73.0113 32.664 73.4453 31.894H73.4873C73.6833 32.748 74.1593 33.028 75.2653 33.028H75.7973V31.67C75.3073 31.67 75.1673 31.488 75.1673 31.012V28.268C75.1673 26.28 74.3133 25.37 72.1013 25.37C70.2113 25.37 69.0773 26.266 69.0213 27.694H70.8273ZM82.1847 29.808C82.1847 30.984 81.5407 31.866 80.4207 31.866C79.2027 31.866 78.7267 30.858 78.7267 29.29C78.7267 27.61 79.3567 26.714 80.4907 26.714C81.5127 26.714 82.1847 27.554 82.1847 28.954V29.808ZM84.0467 21.968H82.1567V26.574H82.1287C81.7927 25.888 81.0647 25.37 80.0567 25.37C78.1807 25.37 76.8087 26.742 76.8087 29.346C76.8087 32.034 78.0967 33.182 79.9307 33.182C81.0927 33.182 81.8207 32.538 82.1987 31.852H82.2407V33H84.0467V21.968ZM90.7771 28.548H87.6131C87.7391 27.33 88.2711 26.588 89.2371 26.588C90.2731 26.588 90.7071 27.344 90.7771 28.464V28.548ZM92.6111 30.9H90.7631C90.6371 31.348 90.3431 31.88 89.3351 31.88C88.2291 31.88 87.6831 31.138 87.5991 29.724H92.6951V29.122C92.6951 27.036 91.7011 25.356 89.2511 25.356C86.9971 25.356 85.6951 27.008 85.6951 29.276C85.6951 31.614 86.9131 33.182 89.2651 33.182C91.1831 33.182 92.3731 32.328 92.6111 30.9ZM94.2928 33H96.1688V29.178C96.1688 27.736 96.9808 27.176 98.3108 27.176H98.6608V25.412H98.5348C97.4988 25.412 96.4908 26.042 96.0988 27.05H96.0708V25.538H94.2928V33ZM107.623 24.026H107.651C107.651 24.026 107.777 24.684 108.057 25.51L109.177 28.87H106.083L107.203 25.51C107.469 24.726 107.609 24.082 107.623 24.026ZM110.563 33H112.607L108.799 22.29H106.587L102.821 33H104.697L105.593 30.34H109.667L110.563 33Z" fill="#3B3B3A"/>
<path d="M125.262 34.7732C125.112 34.9034 124.888 34.9034 124.738 34.7732L121.481 31.9524C121.201 31.7099 121.372 31.25 121.743 31.25L128.257 31.25C128.628 31.25 128.799 31.7099 128.519 31.9524L125.262 34.7732Z" fill="#B0AEAC"/>
<path d="M124.738 23.2268C124.888 23.0966 125.112 23.0966 125.262 23.2268L128.519 26.0476C128.799 26.2901 128.628 26.75 128.257 26.75H121.743C121.372 26.75 121.201 26.2901 121.481 26.0476L124.738 23.2268Z" fill="#0F4FA8"/>
<path d="M168.164 28.408H172.938V33H174.898V22.29H172.938V26.854H168.164V22.29H166.204V33H168.164V28.408ZM181.689 28.548H178.525C178.651 27.33 179.183 26.588 180.149 26.588C181.185 26.588 181.619 27.344 181.689 28.464V28.548ZM183.523 30.9H181.675C181.549 31.348 181.255 31.88 180.247 31.88C179.141 31.88 178.595 31.138 178.511 29.724H183.607V29.122C183.607 27.036 182.613 25.356 180.163 25.356C177.909 25.356 176.607 27.008 176.607 29.276C176.607 31.614 177.825 33.182 180.177 33.182C182.095 33.182 183.285 32.328 183.523 30.9ZM187.653 31.838C186.967 31.838 186.561 31.446 186.561 30.83C186.561 30.48 186.673 30.2 186.939 30.018C187.331 29.738 188.031 29.626 189.347 29.556V29.766C189.347 31.222 188.479 31.838 187.653 31.838ZM186.827 27.694C186.855 27.106 187.219 26.616 188.087 26.616C188.941 26.616 189.333 27.078 189.333 28.086V28.464C187.723 28.534 186.589 28.632 185.805 29.038C185.049 29.43 184.685 30.06 184.685 30.914C184.685 32.286 185.623 33.098 187.149 33.098C188.227 33.098 189.011 32.664 189.445 31.894H189.487C189.683 32.748 190.159 33.028 191.265 33.028H191.797V31.67C191.307 31.67 191.167 31.488 191.167 31.012V28.268C191.167 26.28 190.313 25.37 188.101 25.37C186.211 25.37 185.077 26.266 185.021 27.694H186.827ZM198.185 29.808C198.185 30.984 197.541 31.866 196.421 31.866C195.203 31.866 194.727 30.858 194.727 29.29C194.727 27.61 195.357 26.714 196.491 26.714C197.513 26.714 198.185 27.554 198.185 28.954V29.808ZM200.047 21.968H198.157V26.574H198.129C197.793 25.888 197.065 25.37 196.057 25.37C194.181 25.37 192.809 26.742 192.809 29.346C192.809 32.034 194.097 33.182 195.931 33.182C197.093 33.182 197.821 32.538 198.199 31.852H198.241V33H200.047V21.968ZM206.777 28.548H203.613C203.739 27.33 204.271 26.588 205.237 26.588C206.273 26.588 206.707 27.344 206.777 28.464V28.548ZM208.611 30.9H206.763C206.637 31.348 206.343 31.88 205.335 31.88C204.229 31.88 203.683 31.138 203.599 29.724H208.695V29.122C208.695 27.036 207.701 25.356 205.251 25.356C202.997 25.356 201.695 27.008 201.695 29.276C201.695 31.614 202.913 33.182 205.265 33.182C207.183 33.182 208.373 32.328 208.611 30.9ZM210.293 33H212.169V29.178C212.169 27.736 212.981 27.176 214.311 27.176H214.661V25.412H214.535C213.499 25.412 212.491 26.042 212.099 27.05H212.071V25.538H210.293V33ZM223.973 33C226.311 33 227.991 32.076 227.991 29.878C227.991 28.506 227.025 27.526 225.681 27.302V27.26C226.731 27.022 227.571 26.252 227.571 24.978C227.571 23.186 226.241 22.29 224.015 22.29H219.647V33H223.973ZM221.607 26.742V23.69H223.861C224.939 23.69 225.625 24.18 225.625 25.188C225.625 26.336 224.799 26.742 223.763 26.742H221.607ZM221.607 31.572V28.1H223.805C225.177 28.1 226.003 28.59 226.003 29.752C226.003 31.11 225.177 31.572 223.861 31.572H221.607Z" fill="#3B3B3A"/>
<path d="M241.262 34.7732C241.112 34.9034 240.888 34.9034 240.738 34.7732L237.481 31.9524C237.201 31.7099 237.372 31.25 237.743 31.25L244.257 31.25C244.628 31.25 244.799 31.7099 244.519 31.9524L241.262 34.7732Z" fill="#B0AEAC"/>
<path d="M240.738 23.2268C240.888 23.0966 241.112 23.0966 241.262 23.2268L244.519 26.0476C244.799 26.2901 244.628 26.75 244.257 26.75H237.743C237.372 26.75 237.201 26.2901 237.481 26.0476L240.738 23.2268Z" fill="#B0AEAC"/>
<path d="M284.164 28.408H288.938V33H290.898V22.29H288.938V26.854H284.164V22.29H282.204V33H284.164V28.408ZM297.689 28.548H294.525C294.651 27.33 295.183 26.588 296.149 26.588C297.185 26.588 297.619 27.344 297.689 28.464V28.548ZM299.523 30.9H297.675C297.549 31.348 297.255 31.88 296.247 31.88C295.141 31.88 294.595 31.138 294.511 29.724H299.607V29.122C299.607 27.036 298.613 25.356 296.163 25.356C293.909 25.356 292.607 27.008 292.607 29.276C292.607 31.614 293.825 33.182 296.177 33.182C298.095 33.182 299.285 32.328 299.523 30.9ZM303.653 31.838C302.967 31.838 302.561 31.446 302.561 30.83C302.561 30.48 302.673 30.2 302.939 30.018C303.331 29.738 304.031 29.626 305.347 29.556V29.766C305.347 31.222 304.479 31.838 303.653 31.838ZM302.827 27.694C302.855 27.106 303.219 26.616 304.087 26.616C304.941 26.616 305.333 27.078 305.333 28.086V28.464C303.723 28.534 302.589 28.632 301.805 29.038C301.049 29.43 300.685 30.06 300.685 30.914C300.685 32.286 301.623 33.098 303.149 33.098C304.227 33.098 305.011 32.664 305.445 31.894H305.487C305.683 32.748 306.159 33.028 307.265 33.028H307.797V31.67C307.307 31.67 307.167 31.488 307.167 31.012V28.268C307.167 26.28 306.313 25.37 304.101 25.37C302.211 25.37 301.077 26.266 301.021 27.694H302.827ZM314.185 29.808C314.185 30.984 313.541 31.866 312.421 31.866C311.203 31.866 310.727 30.858 310.727 29.29C310.727 27.61 311.357 26.714 312.491 26.714C313.513 26.714 314.185 27.554 314.185 28.954V29.808ZM316.047 21.968H314.157V26.574H314.129C313.793 25.888 313.065 25.37 312.057 25.37C310.181 25.37 308.809 26.742 308.809 29.346C308.809 32.034 310.097 33.182 311.931 33.182C313.093 33.182 313.821 32.538 314.199 31.852H314.241V33H316.047V21.968ZM322.777 28.548H319.613C319.739 27.33 320.271 26.588 321.237 26.588C322.273 26.588 322.707 27.344 322.777 28.464V28.548ZM324.611 30.9H322.763C322.637 31.348 322.343 31.88 321.335 31.88C320.229 31.88 319.683 31.138 319.599 29.724H324.695V29.122C324.695 27.036 323.701 25.356 321.251 25.356C318.997 25.356 317.695 27.008 317.695 29.276C317.695 31.614 318.913 33.182 321.265 33.182C323.183 33.182 324.373 32.328 324.611 30.9ZM326.293 33H328.169V29.178C328.169 27.736 328.981 27.176 330.311 27.176H330.661V25.412H330.535C329.499 25.412 328.491 26.042 328.099 27.05H328.071V25.538H326.293V33ZM340.127 23.606C341.499 23.606 342.311 24.572 342.437 25.762H344.453C344.271 23.354 342.465 22.122 340.127 22.122C337.145 22.122 335.227 24.236 335.227 27.75C335.227 31.264 337.005 33.21 340.141 33.21C342.689 33.21 344.313 31.67 344.453 29.472H342.465C342.339 30.76 341.597 31.74 340.113 31.74C338.363 31.74 337.327 30.256 337.327 27.694C337.327 25.104 338.419 23.606 340.127 23.606Z" fill="#3B3B3A"/>
<path d="M358.262 34.7732C358.112 34.9034 357.888 34.9034 357.738 34.7732L354.481 31.9524C354.201 31.7099 354.372 31.25 354.743 31.25L361.257 31.25C361.628 31.25 361.799 31.7099 361.519 31.9524L358.262 34.7732Z" fill="#B0AEAC"/>
<path d="M357.738 23.2268C357.888 23.0966 358.112 23.0966 358.262 23.2268L361.519 26.0476C361.799 26.2901 361.628 26.75 361.257 26.75H354.743C354.372 26.75 354.201 26.2901 354.481 26.0476L357.738 23.2268Z" fill="#B0AEAC"/>
<path d="M54.74 79.186C56.462 79.186 57.302 80.39 57.484 81.482H58.856C58.618 79.088 56.56 78.122 54.74 78.122C51.954 78.122 49.952 80.18 49.952 83.666C49.952 87.404 51.926 89.21 54.712 89.21C57.134 89.21 58.688 87.67 58.856 85.654H57.526C57.386 86.872 56.602 88.146 54.712 88.146C52.57 88.146 51.338 86.438 51.338 83.666C51.338 80.992 52.542 79.186 54.74 79.186ZM65.4998 84.66H61.7198C61.8738 83.316 62.5178 82.392 63.6938 82.392C64.9818 82.392 65.4718 83.344 65.4998 84.576V84.66ZM66.6898 87.068H65.4718C65.3458 87.502 65.0238 88.216 63.7918 88.216C62.4058 88.216 61.7898 87.18 61.7058 85.654H66.7878V85.01C66.7878 83.148 65.9198 81.44 63.7078 81.44C61.5938 81.44 60.4178 83.162 60.4178 85.346C60.4178 87.544 61.4958 89.182 63.7498 89.182C65.3318 89.182 66.4238 88.342 66.6898 87.068ZM68.773 89H70.033V77.968H68.773V89ZM72.6558 89H73.9158V77.968H72.6558V89ZM84.1331 79.592H84.1611C84.1611 79.592 84.3571 80.278 84.5811 80.922L85.9251 84.758H82.3691L83.6991 80.922C83.9091 80.32 84.1051 79.662 84.1331 79.592ZM87.4091 89H88.7951L84.9451 78.29H83.4051L79.5971 89H80.8991L82.0051 85.808H86.2891L87.4091 89ZM92.2157 89H93.4897V78.584H92.4397C92.4257 79.228 92.2857 79.648 91.9777 79.956C91.6557 80.278 91.1517 80.46 90.4517 80.46H90.1437V81.356H92.2157V89Z" fill="#3B3B3A"/>
<path d="M54.74 259.186C56.462 259.186 57.302 260.39 57.484 261.482H58.856C58.618 259.088 56.56 258.122 54.74 258.122C51.954 258.122 49.952 260.18 49.952 263.666C49.952 267.404 51.926 269.21 54.712 269.21C57.134 269.21 58.688 267.67 58.856 265.654H57.526C57.386 266.872 56.602 268.146 54.712 268.146C52.57 268.146 51.338 266.438 51.338 263.666C51.338 260.992 52.542 259.186 54.74 259.186ZM65.4998 264.66H61.7198C61.8738 263.316 62.5178 262.392 63.6938 262.392C64.9818 262.392 65.4718 263.344 65.4998 264.576V264.66ZM66.6898 267.068H65.4718C65.3458 267.502 65.0238 268.216 63.7918 268.216C62.4058 268.216 61.7898 267.18 61.7058 265.654H66.7878V265.01C66.7878 263.148 65.9198 261.44 63.7078 261.44C61.5938 261.44 60.4178 263.162 60.4178 265.346C60.4178 267.544 61.4958 269.182 63.7498 269.182C65.3318 269.182 66.4238 268.342 66.6898 267.068ZM68.773 269H70.033V257.968H68.773V269ZM72.6558 269H73.9158V257.968H72.6558V269ZM84.1331 259.592H84.1611C84.1611 259.592 84.3571 260.278 84.5811 260.922L85.9251 264.758H82.3691L83.6991 260.922C83.9091 260.32 84.1051 259.662 84.1331 259.592ZM87.4091 269H88.7951L84.9451 258.29H83.4051L79.5971 269H80.8991L82.0051 265.808H86.2891L87.4091 269ZM91.6697 261.804C91.6697 260.166 92.6077 259.522 93.6997 259.522C94.8757 259.522 95.5757 260.306 95.5757 261.37C95.5757 262.546 94.8057 263.302 93.6437 264.506L90.0877 268.034V269H96.9757V267.88H91.7957V267.866L94.6097 265.178C96.3177 263.54 96.9057 262.728 96.9057 261.3C96.9057 259.9 95.9677 258.472 93.6997 258.472C91.8237 258.472 90.3537 259.704 90.3537 261.804H91.6697Z" fill="#3B3B3A"/>
<path d="M54.74 315.186C56.462 315.186 57.302 316.39 57.484 317.482H58.856C58.618 315.088 56.56 314.122 54.74 314.122C51.954 314.122 49.952 316.18 49.952 319.666C49.952 323.404 51.926 325.21 54.712 325.21C57.134 325.21 58.688 323.67 58.856 321.654H57.526C57.386 322.872 56.602 324.146 54.712 324.146C52.57 324.146 51.338 322.438 51.338 319.666C51.338 316.992 52.542 315.186 54.74 315.186ZM65.4998 320.66H61.7198C61.8738 319.316 62.5178 318.392 63.6938 318.392C64.9818 318.392 65.4718 319.344 65.4998 320.576V320.66ZM66.6898 323.068H65.4718C65.3458 323.502 65.0238 324.216 63.7918 324.216C62.4058 324.216 61.7898 323.18 61.7058 321.654H66.7878V321.01C66.7878 319.148 65.9198 317.44 63.7078 317.44C61.5938 317.44 60.4178 319.162 60.4178 321.346C60.4178 323.544 61.4958 325.182 63.7498 325.182C65.3318 325.182 66.4238 324.342 66.6898 323.068ZM68.773 325H70.033V313.968H68.773V325ZM72.6558 325H73.9158V313.968H72.6558V325ZM84.1331 315.592H84.1611C84.1611 315.592 84.3571 316.278 84.5811 316.922L85.9251 320.758H82.3691L83.6991 316.922C83.9091 316.32 84.1051 315.662 84.1331 315.592ZM87.4091 325H88.7951L84.9451 314.29H83.4051L79.5971 325H80.8991L82.0051 321.808H86.2891L87.4091 325ZM93.8117 320.31C95.1697 320.31 95.9677 321.01 95.9677 322.242C95.9677 323.404 95.0017 324.146 93.8117 324.146C92.6357 324.146 91.6837 323.474 91.5017 322.088H90.2277C90.3117 323.754 91.3477 325.21 93.6997 325.21C95.9397 325.21 97.2277 323.838 97.2277 322.242C97.2277 320.674 96.2197 319.904 95.2117 319.638V319.61C96.2057 319.176 96.9337 318.322 96.9337 317.258C96.9337 315.662 95.7437 314.472 93.7697 314.472C91.5577 314.472 90.4097 315.914 90.4097 317.594H91.6697C91.7257 316.18 92.4817 315.536 93.7697 315.536C94.8897 315.536 95.6737 316.236 95.6737 317.328C95.6737 318.35 94.8757 319.148 93.8117 319.148H93.2657V320.31H93.8117Z" fill="#3B3B3A"/>
<path d="M170.74 79.186C172.462 79.186 173.302 80.39 173.484 81.482H174.856C174.618 79.088 172.56 78.122 170.74 78.122C167.954 78.122 165.952 80.18 165.952 83.666C165.952 87.404 167.926 89.21 170.712 89.21C173.134 89.21 174.688 87.67 174.856 85.654H173.526C173.386 86.872 172.602 88.146 170.712 88.146C168.57 88.146 167.338 86.438 167.338 83.666C167.338 80.992 168.542 79.186 170.74 79.186ZM181.5 84.66H177.72C177.874 83.316 178.518 82.392 179.694 82.392C180.982 82.392 181.472 83.344 181.5 84.576V84.66ZM182.69 87.068H181.472C181.346 87.502 181.024 88.216 179.792 88.216C178.406 88.216 177.79 87.18 177.706 85.654H182.788V85.01C182.788 83.148 181.92 81.44 179.708 81.44C177.594 81.44 176.418 83.162 176.418 85.346C176.418 87.544 177.496 89.182 179.75 89.182C181.332 89.182 182.424 88.342 182.69 87.068ZM184.773 89H186.033V77.968H184.773V89ZM188.656 89H189.916V77.968H188.656V89ZM200.385 89C202.541 89 204.347 88.3 204.347 85.892C204.347 84.604 203.395 83.54 202.051 83.316V83.288C203.283 83.008 204.011 82.196 204.011 80.894C204.011 79.144 202.541 78.29 200.707 78.29H196.493V89H200.385ZM197.795 82.798V79.34H200.637C201.827 79.34 202.653 79.858 202.653 81.02C202.653 82.392 201.603 82.798 200.469 82.798H197.795ZM197.795 87.95V83.876H200.287C201.981 83.876 202.989 84.394 202.989 85.808C202.989 87.418 201.967 87.95 200.399 87.95H197.795ZM208.024 89H209.298V78.584H208.248C208.234 79.228 208.094 79.648 207.786 79.956C207.464 80.278 206.96 80.46 206.26 80.46H205.952V81.356H208.024V89Z" fill="#3B3B3A"/>
<path d="M170.74 259.186C172.462 259.186 173.302 260.39 173.484 261.482H174.856C174.618 259.088 172.56 258.122 170.74 258.122C167.954 258.122 165.952 260.18 165.952 263.666C165.952 267.404 167.926 269.21 170.712 269.21C173.134 269.21 174.688 267.67 174.856 265.654H173.526C173.386 266.872 172.602 268.146 170.712 268.146C168.57 268.146 167.338 266.438 167.338 263.666C167.338 260.992 168.542 259.186 170.74 259.186ZM181.5 264.66H177.72C177.874 263.316 178.518 262.392 179.694 262.392C180.982 262.392 181.472 263.344 181.5 264.576V264.66ZM182.69 267.068H181.472C181.346 267.502 181.024 268.216 179.792 268.216C178.406 268.216 177.79 267.18 177.706 265.654H182.788V265.01C182.788 263.148 181.92 261.44 179.708 261.44C177.594 261.44 176.418 263.162 176.418 265.346C176.418 267.544 177.496 269.182 179.75 269.182C181.332 269.182 182.424 268.342 182.69 267.068ZM184.773 269H186.033V257.968H184.773V269ZM188.656 269H189.916V257.968H188.656V269ZM200.385 269C202.541 269 204.347 268.3 204.347 265.892C204.347 264.604 203.395 263.54 202.051 263.316V263.288C203.283 263.008 204.011 262.196 204.011 260.894C204.011 259.144 202.541 258.29 200.707 258.29H196.493V269H200.385ZM197.795 262.798V259.34H200.637C201.827 259.34 202.653 259.858 202.653 261.02C202.653 262.392 201.603 262.798 200.469 262.798H197.795ZM197.795 267.95V263.876H200.287C201.981 263.876 202.989 264.394 202.989 265.808C202.989 267.418 201.967 267.95 200.399 267.95H197.795ZM207.478 261.804C207.478 260.166 208.416 259.522 209.508 259.522C210.684 259.522 211.384 260.306 211.384 261.37C211.384 262.546 210.614 263.302 209.452 264.506L205.896 268.034V269H212.784V267.88H207.604V267.866L210.418 265.178C212.126 263.54 212.714 262.728 212.714 261.3C212.714 259.9 211.776 258.472 209.508 258.472C207.632 258.472 206.162 259.704 206.162 261.804H207.478Z" fill="#3B3B3A"/>
<path d="M170.74 315.186C172.462 315.186 173.302 316.39 173.484 317.482H174.856C174.618 315.088 172.56 314.122 170.74 314.122C167.954 314.122 165.952 316.18 165.952 319.666C165.952 323.404 167.926 325.21 170.712 325.21C173.134 325.21 174.688 323.67 174.856 321.654H173.526C173.386 322.872 172.602 324.146 170.712 324.146C168.57 324.146 167.338 322.438 167.338 319.666C167.338 316.992 168.542 315.186 170.74 315.186ZM181.5 320.66H177.72C177.874 319.316 178.518 318.392 179.694 318.392C180.982 318.392 181.472 319.344 181.5 320.576V320.66ZM182.69 323.068H181.472C181.346 323.502 181.024 324.216 179.792 324.216C178.406 324.216 177.79 323.18 177.706 321.654H182.788V321.01C182.788 319.148 181.92 317.44 179.708 317.44C177.594 317.44 176.418 319.162 176.418 321.346C176.418 323.544 177.496 325.182 179.75 325.182C181.332 325.182 182.424 324.342 182.69 323.068ZM184.773 325H186.033V313.968H184.773V325ZM188.656 325H189.916V313.968H188.656V325ZM200.385 325C202.541 325 204.347 324.3 204.347 321.892C204.347 320.604 203.395 319.54 202.051 319.316V319.288C203.283 319.008 204.011 318.196 204.011 316.894C204.011 315.144 202.541 314.29 200.707 314.29H196.493V325H200.385ZM197.795 318.798V315.34H200.637C201.827 315.34 202.653 315.858 202.653 317.02C202.653 318.392 201.603 318.798 200.469 318.798H197.795ZM197.795 323.95V319.876H200.287C201.981 319.876 202.989 320.394 202.989 321.808C202.989 323.418 201.967 323.95 200.399 323.95H197.795ZM209.62 320.31C210.978 320.31 211.776 321.01 211.776 322.242C211.776 323.404 210.81 324.146 209.62 324.146C208.444 324.146 207.492 323.474 207.31 322.088H206.036C206.12 323.754 207.156 325.21 209.508 325.21C211.748 325.21 213.036 323.838 213.036 322.242C213.036 320.674 212.028 319.904 211.02 319.638V319.61C212.014 319.176 212.742 318.322 212.742 317.258C212.742 315.662 211.552 314.472 209.578 314.472C207.366 314.472 206.218 315.914 206.218 317.594H207.478C207.534 316.18 208.29 315.536 209.578 315.536C210.698 315.536 211.482 316.236 211.482 317.328C211.482 318.35 210.684 319.148 209.62 319.148H209.074V320.31H209.62Z" fill="#3B3B3A"/>
<path d="M286.74 79.186C288.462 79.186 289.302 80.39 289.484 81.482H290.856C290.618 79.088 288.56 78.122 286.74 78.122C283.954 78.122 281.952 80.18 281.952 83.666C281.952 87.404 283.926 89.21 286.712 89.21C289.134 89.21 290.688 87.67 290.856 85.654H289.526C289.386 86.872 288.602 88.146 286.712 88.146C284.57 88.146 283.338 86.438 283.338 83.666C283.338 80.992 284.542 79.186 286.74 79.186ZM297.5 84.66H293.72C293.874 83.316 294.518 82.392 295.694 82.392C296.982 82.392 297.472 83.344 297.5 84.576V84.66ZM298.69 87.068H297.472C297.346 87.502 297.024 88.216 295.792 88.216C294.406 88.216 293.79 87.18 293.706 85.654H298.788V85.01C298.788 83.148 297.92 81.44 295.708 81.44C293.594 81.44 292.418 83.162 292.418 85.346C292.418 87.544 293.496 89.182 295.75 89.182C297.332 89.182 298.424 88.342 298.69 87.068ZM300.773 89H302.033V77.968H300.773V89ZM304.656 89H305.916V77.968H304.656V89ZM316.777 79.186C318.499 79.186 319.339 80.39 319.521 81.482H320.893C320.655 79.088 318.597 78.122 316.777 78.122C313.991 78.122 311.989 80.18 311.989 83.666C311.989 87.404 313.963 89.21 316.749 89.21C319.171 89.21 320.725 87.67 320.893 85.654H319.563C319.423 86.872 318.639 88.146 316.749 88.146C314.607 88.146 313.375 86.438 313.375 83.666C313.375 80.992 314.579 79.186 316.777 79.186ZM324.667 89H325.941V78.584H324.891C324.877 79.228 324.737 79.648 324.429 79.956C324.107 80.278 323.603 80.46 322.903 80.46H322.595V81.356H324.667V89Z" fill="#3B3B3A"/>
<path d="M286.74 259.186C288.462 259.186 289.302 260.39 289.484 261.482H290.856C290.618 259.088 288.56 258.122 286.74 258.122C283.954 258.122 281.952 260.18 281.952 263.666C281.952 267.404 283.926 269.21 286.712 269.21C289.134 269.21 290.688 267.67 290.856 265.654H289.526C289.386 266.872 288.602 268.146 286.712 268.146C284.57 268.146 283.338 266.438 283.338 263.666C283.338 260.992 284.542 259.186 286.74 259.186ZM297.5 264.66H293.72C293.874 263.316 294.518 262.392 295.694 262.392C296.982 262.392 297.472 263.344 297.5 264.576V264.66ZM298.69 267.068H297.472C297.346 267.502 297.024 268.216 295.792 268.216C294.406 268.216 293.79 267.18 293.706 265.654H298.788V265.01C298.788 263.148 297.92 261.44 295.708 261.44C293.594 261.44 292.418 263.162 292.418 265.346C292.418 267.544 293.496 269.182 295.75 269.182C297.332 269.182 298.424 268.342 298.69 267.068ZM300.773 269H302.033V257.968H300.773V269ZM304.656 269H305.916V257.968H304.656V269ZM316.777 259.186C318.499 259.186 319.339 260.39 319.521 261.482H320.893C320.655 259.088 318.597 258.122 316.777 258.122C313.991 258.122 311.989 260.18 311.989 263.666C311.989 267.404 313.963 269.21 316.749 269.21C319.171 269.21 320.725 267.67 320.893 265.654H319.563C319.423 266.872 318.639 268.146 316.749 268.146C314.607 268.146 313.375 266.438 313.375 263.666C313.375 260.992 314.579 259.186 316.777 259.186ZM324.121 261.804C324.121 260.166 325.059 259.522 326.151 259.522C327.327 259.522 328.027 260.306 328.027 261.37C328.027 262.546 327.257 263.302 326.095 264.506L322.539 268.034V269H329.427V267.88H324.247V267.866L327.061 265.178C328.769 263.54 329.357 262.728 329.357 261.3C329.357 259.9 328.419 258.472 326.151 258.472C324.275 258.472 322.805 259.704 322.805 261.804H324.121Z" fill="#3B3B3A"/>
<path d="M286.74 315.186C288.462 315.186 289.302 316.39 289.484 317.482H290.856C290.618 315.088 288.56 314.122 286.74 314.122C283.954 314.122 281.952 316.18 281.952 319.666C281.952 323.404 283.926 325.21 286.712 325.21C289.134 325.21 290.688 323.67 290.856 321.654H289.526C289.386 322.872 288.602 324.146 286.712 324.146C284.57 324.146 283.338 322.438 283.338 319.666C283.338 316.992 284.542 315.186 286.74 315.186ZM297.5 320.66H293.72C293.874 319.316 294.518 318.392 295.694 318.392C296.982 318.392 297.472 319.344 297.5 320.576V320.66ZM298.69 323.068H297.472C297.346 323.502 297.024 324.216 295.792 324.216C294.406 324.216 293.79 323.18 293.706 321.654H298.788V321.01C298.788 319.148 297.92 317.44 295.708 317.44C293.594 317.44 292.418 319.162 292.418 321.346C292.418 323.544 293.496 325.182 295.75 325.182C297.332 325.182 298.424 324.342 298.69 323.068ZM300.773 325H302.033V313.968H300.773V325ZM304.656 325H305.916V313.968H304.656V325ZM316.777 315.186C318.499 315.186 319.339 316.39 319.521 317.482H320.893C320.655 315.088 318.597 314.122 316.777 314.122C313.991 314.122 311.989 316.18 311.989 319.666C311.989 323.404 313.963 325.21 316.749 325.21C319.171 325.21 320.725 323.67 320.893 321.654H319.563C319.423 322.872 318.639 324.146 316.749 324.146C314.607 324.146 313.375 322.438 313.375 319.666C313.375 316.992 314.579 315.186 316.777 315.186ZM326.263 320.31C327.621 320.31 328.419 321.01 328.419 322.242C328.419 323.404 327.453 324.146 326.263 324.146C325.087 324.146 324.135 323.474 323.953 322.088H322.679C322.763 323.754 323.799 325.21 326.151 325.21C328.391 325.21 329.679 323.838 329.679 322.242C329.679 320.674 328.671 319.904 327.663 319.638V319.61C328.657 319.176 329.385 318.322 329.385 317.258C329.385 315.662 328.195 314.472 326.221 314.472C324.009 314.472 322.861 315.914 322.861 317.594H324.121C324.177 316.18 324.933 315.536 326.221 315.536C327.341 315.536 328.125 316.236 328.125 317.328C328.125 318.35 327.327 319.148 326.263 319.148H325.717V320.31H326.263Z" fill="#3B3B3A"/>
<path d="M28.164 138.408H32.938V143H34.898V132.29H32.938V136.854H28.164V132.29H26.204V143H28.164V138.408ZM41.6892 138.548H38.5252C38.6512 137.33 39.1832 136.588 40.1492 136.588C41.1852 136.588 41.6192 137.344 41.6892 138.464V138.548ZM43.5232 140.9H41.6752C41.5492 141.348 41.2552 141.88 40.2472 141.88C39.1412 141.88 38.5952 141.138 38.5112 139.724H43.6072V139.122C43.6072 137.036 42.6132 135.356 40.1632 135.356C37.9092 135.356 36.6072 137.008 36.6072 139.276C36.6072 141.614 37.8252 143.182 40.1772 143.182C42.0952 143.182 43.2852 142.328 43.5232 140.9ZM47.6533 141.838C46.9673 141.838 46.5613 141.446 46.5613 140.83C46.5613 140.48 46.6733 140.2 46.9393 140.018C47.3313 139.738 48.0313 139.626 49.3473 139.556V139.766C49.3473 141.222 48.4793 141.838 47.6533 141.838ZM46.8273 137.694C46.8553 137.106 47.2193 136.616 48.0873 136.616C48.9413 136.616 49.3333 137.078 49.3333 138.086V138.464C47.7233 138.534 46.5893 138.632 45.8053 139.038C45.0493 139.43 44.6853 140.06 44.6853 140.914C44.6853 142.286 45.6233 143.098 47.1493 143.098C48.2273 143.098 49.0113 142.664 49.4453 141.894H49.4873C49.6833 142.748 50.1593 143.028 51.2653 143.028H51.7973V141.67C51.3073 141.67 51.1673 141.488 51.1673 141.012V138.268C51.1673 136.28 50.3133 135.37 48.1013 135.37C46.2113 135.37 45.0773 136.266 45.0213 137.694H46.8273ZM58.1847 139.808C58.1847 140.984 57.5407 141.866 56.4207 141.866C55.2027 141.866 54.7267 140.858 54.7267 139.29C54.7267 137.61 55.3567 136.714 56.4907 136.714C57.5127 136.714 58.1847 137.554 58.1847 138.954V139.808ZM60.0467 131.968H58.1567V136.574H58.1287C57.7927 135.888 57.0647 135.37 56.0567 135.37C54.1807 135.37 52.8087 136.742 52.8087 139.346C52.8087 142.034 54.0967 143.182 55.9307 143.182C57.0927 143.182 57.8207 142.538 58.1987 141.852H58.2407V143H60.0467V131.968ZM66.7771 138.548H63.6131C63.7391 137.33 64.2711 136.588 65.2371 136.588C66.2731 136.588 66.7071 137.344 66.7771 138.464V138.548ZM68.6111 140.9H66.7631C66.6371 141.348 66.3431 141.88 65.3351 141.88C64.2291 141.88 63.6831 141.138 63.5991 139.724H68.6951V139.122C68.6951 137.036 67.7011 135.356 65.2511 135.356C62.9971 135.356 61.6951 137.008 61.6951 139.276C61.6951 141.614 62.9131 143.182 65.2651 143.182C67.1831 143.182 68.3731 142.328 68.6111 140.9ZM70.2928 143H72.1688V139.178C72.1688 137.736 72.9808 137.176 74.3108 137.176H74.6608V135.412H74.5348C73.4988 135.412 72.4908 136.042 72.0988 137.05H72.0708V135.538H70.2928V143Z" fill="#3B3B3A"/>
<path d="M26.456 167H33.078V165.838H27.758V156.29H26.456V167ZM37.5203 167.182C39.5923 167.182 40.8383 165.614 40.8383 163.304C40.8383 161.022 39.7463 159.44 37.5483 159.44C35.4903 159.44 34.2303 161.022 34.2303 163.304C34.2303 165.614 35.3503 167.182 37.5203 167.182ZM37.5343 160.406C38.9483 160.406 39.5363 161.512 39.5363 163.304C39.5363 165.11 38.9343 166.202 37.5623 166.202C36.1343 166.202 35.5323 165.11 35.5323 163.304C35.5323 161.512 36.1903 160.406 37.5343 160.406ZM42.8316 167H44.0916V162.982C44.0916 161.554 44.9596 160.798 46.2756 160.798H46.5136V159.482H46.3876C45.3096 159.482 44.3856 160.238 44.0496 161.008H44.0216V159.622H42.8316V167ZM52.5877 162.66H48.8077C48.9617 161.316 49.6057 160.392 50.7817 160.392C52.0697 160.392 52.5597 161.344 52.5877 162.576V162.66ZM53.7777 165.068H52.5597C52.4337 165.502 52.1117 166.216 50.8797 166.216C49.4937 166.216 48.8777 165.18 48.7937 163.654H53.8757V163.01C53.8757 161.148 53.0077 159.44 50.7957 159.44C48.6817 159.44 47.5057 161.162 47.5057 163.346C47.5057 165.544 48.5837 167.182 50.8377 167.182C52.4197 167.182 53.5117 166.342 53.7777 165.068ZM55.7926 167H57.0526V162.548C57.0526 161.372 57.6686 160.49 59.0406 160.49C59.5306 160.49 59.9366 160.63 60.1886 160.98C60.4546 161.344 60.4546 161.904 60.4546 162.436V167H61.7146V162.576C61.7146 161.372 62.3306 160.49 63.7026 160.49C64.1926 160.49 64.5986 160.616 64.8506 160.966C65.1166 161.33 65.1166 161.904 65.1166 162.436V167H66.3766V161.862C66.3766 160.112 65.4246 159.44 64.0386 159.44C62.8206 159.44 61.9106 160.196 61.6306 160.966H61.6026C61.3366 159.944 60.4966 159.44 59.3766 159.44C58.2006 159.44 57.3466 160.112 57.0106 160.868H56.9826V159.622H55.7926V167ZM72.7314 157.942H74.0614V156.584H72.7314V157.942ZM72.7594 167H74.0334V159.622H72.7594V167ZM77.8875 163.584V162.8C77.8875 161.554 78.6855 160.448 79.9875 160.448C81.4995 160.448 81.9615 161.638 81.9615 163.206C81.9615 165.138 81.3175 166.188 80.0015 166.188C78.6015 166.188 77.8875 165.04 77.8875 163.584ZM76.6695 169.632H77.9295V165.922H77.9575C78.2375 166.58 79.1055 167.182 80.1835 167.182C81.8495 167.182 83.2355 165.894 83.2355 163.206C83.2355 160.406 81.8355 159.44 80.2675 159.44C79.1475 159.44 78.3495 160.07 77.9155 160.854H77.8875V159.622H76.6695V169.632ZM90.1405 161.47C90.0145 160.182 89.1045 159.44 87.5085 159.44C85.8285 159.44 84.8345 160.378 84.8345 161.68C84.8345 162.968 85.5345 163.514 86.8505 163.724L87.9845 163.892C88.9925 164.06 89.1465 164.382 89.1465 164.97C89.1465 165.74 88.5165 166.216 87.5085 166.216C86.2065 166.216 85.8845 165.488 85.8285 164.914H84.5965C84.6945 166.496 85.9545 167.182 87.4805 167.182C89.1605 167.182 90.3645 166.384 90.3645 164.9C90.3645 163.626 89.8045 162.996 88.2645 162.758L87.1305 162.59C86.3885 162.464 86.0245 162.184 86.0245 161.582C86.0245 160.896 86.5985 160.392 87.4665 160.392C88.3345 160.392 88.8665 160.812 88.9365 161.47H90.1405ZM93.4871 159.622H92.2411V164.76C92.2411 166.496 93.1931 167.182 94.6071 167.182C95.7831 167.182 96.5951 166.496 96.9311 165.74H96.9591V167H98.1631V159.622H96.9031V163.612C96.9031 165.236 96.2591 166.146 94.8871 166.146C94.3971 166.146 94.0051 165.992 93.7531 165.656C93.4871 165.306 93.4871 164.69 93.4871 164.158V159.622ZM100.787 167H102.047V162.548C102.047 161.372 102.663 160.49 104.035 160.49C104.525 160.49 104.931 160.63 105.183 160.98C105.449 161.344 105.449 161.904 105.449 162.436V167H106.709V162.576C106.709 161.372 107.325 160.49 108.697 160.49C109.187 160.49 109.593 160.616 109.845 160.966C110.111 161.33 110.111 161.904 110.111 162.436V167H111.371V161.862C111.371 160.112 110.419 159.44 109.033 159.44C107.815 159.44 106.905 160.196 106.625 160.966H106.597C106.331 159.944 105.491 159.44 104.371 159.44C103.195 159.44 102.341 160.112 102.005 160.868H101.977V159.622H100.787V167ZM122.444 163.808C122.444 165.152 121.646 166.188 120.344 166.188C118.874 166.188 118.384 164.97 118.384 163.304C118.384 161.568 119.028 160.448 120.442 160.448C121.618 160.448 122.444 161.456 122.444 163.024V163.808ZM123.676 155.968H122.416V160.742H122.388C122.094 160.056 121.38 159.44 120.274 159.44C118.412 159.44 117.096 160.826 117.096 163.36C117.096 166.202 118.538 167.182 120.106 167.182C121.24 167.182 122.038 166.51 122.43 165.782H122.472V167H123.676V155.968ZM128.944 167.182C131.016 167.182 132.262 165.614 132.262 163.304C132.262 161.022 131.17 159.44 128.972 159.44C126.914 159.44 125.654 161.022 125.654 163.304C125.654 165.614 126.774 167.182 128.944 167.182ZM128.958 160.406C130.372 160.406 130.96 161.512 130.96 163.304C130.96 165.11 130.358 166.202 128.986 166.202C127.558 166.202 126.956 165.11 126.956 163.304C126.956 161.512 127.614 160.406 128.958 160.406ZM134.255 167H135.515V155.968H134.255V167ZM140.77 167.182C142.842 167.182 144.088 165.614 144.088 163.304C144.088 161.022 142.996 159.44 140.798 159.44C138.74 159.44 137.48 161.022 137.48 163.304C137.48 165.614 138.6 167.182 140.77 167.182ZM140.784 160.406C142.198 160.406 142.786 161.512 142.786 163.304C142.786 165.11 142.184 166.202 140.812 166.202C139.384 166.202 138.782 165.11 138.782 163.304C138.782 161.512 139.44 160.406 140.784 160.406ZM146.082 167H147.342V162.982C147.342 161.554 148.21 160.798 149.526 160.798H149.764V159.482H149.638C148.56 159.482 147.636 160.238 147.3 161.008H147.272V159.622H146.082V167ZM160.209 161.47C160.083 160.182 159.173 159.44 157.577 159.44C155.897 159.44 154.903 160.378 154.903 161.68C154.903 162.968 155.603 163.514 156.919 163.724L158.053 163.892C159.061 164.06 159.215 164.382 159.215 164.97C159.215 165.74 158.585 166.216 157.577 166.216C156.275 166.216 155.953 165.488 155.897 164.914H154.665C154.763 166.496 156.023 167.182 157.549 167.182C159.229 167.182 160.433 166.384 160.433 164.9C160.433 163.626 159.873 162.996 158.333 162.758L157.199 162.59C156.457 162.464 156.093 162.184 156.093 161.582C156.093 160.896 156.667 160.392 157.535 160.392C158.403 160.392 158.935 160.812 159.005 161.47H160.209ZM162.446 157.942H163.776V156.584H162.446V157.942ZM162.474 167H163.748V159.622H162.474V167ZM166.79 157.48V158.012C166.79 159.426 166.566 159.664 165.572 159.664H165.348V160.588H166.692V165.152C166.692 166.412 167.266 167.112 168.708 167.112C169.352 167.112 169.87 167.028 169.87 167.028V165.964C169.87 165.964 169.436 166.034 169.058 166.034C168.26 166.034 167.938 165.726 167.938 164.942V160.588H169.758V159.622H167.938V157.48H166.79ZM177.189 166.104C176.391 166.104 175.901 165.698 175.901 164.942C175.901 164.55 176.027 164.242 176.307 164.032C176.783 163.682 177.693 163.556 179.289 163.486V163.654C179.289 165.474 178.127 166.104 177.189 166.104ZM176.209 161.638C176.251 161.008 176.657 160.378 177.749 160.378C178.785 160.378 179.289 160.896 179.289 162.226V162.548C177.637 162.604 176.489 162.744 175.719 163.15C174.963 163.528 174.613 164.2 174.613 165.012C174.613 166.328 175.481 167.126 176.951 167.126C178.043 167.126 178.925 166.622 179.317 165.754H179.345C179.471 166.636 179.863 167.056 181.039 167.056H181.193V166.034C180.647 166.02 180.521 165.782 180.521 165.194V162.184C180.521 160.21 179.625 159.44 177.791 159.44C176.027 159.44 175.033 160.336 175.005 161.638H176.209ZM183.023 167H184.283V162.548C184.283 161.372 184.899 160.49 186.271 160.49C186.761 160.49 187.167 160.63 187.419 160.98C187.685 161.344 187.685 161.904 187.685 162.436V167H188.945V162.576C188.945 161.372 189.561 160.49 190.933 160.49C191.423 160.49 191.829 160.616 192.081 160.966C192.347 161.33 192.347 161.904 192.347 162.436V167H193.607V161.862C193.607 160.112 192.655 159.44 191.269 159.44C190.051 159.44 189.141 160.196 188.861 160.966H188.833C188.567 159.944 187.727 159.44 186.607 159.44C185.431 159.44 184.577 160.112 184.241 160.868H184.213V159.622H183.023V167ZM200.599 162.66H196.819C196.973 161.316 197.617 160.392 198.793 160.392C200.081 160.392 200.571 161.344 200.599 162.576V162.66ZM201.789 165.068H200.571C200.445 165.502 200.123 166.216 198.891 166.216C197.505 166.216 196.889 165.18 196.805 163.654H201.887V163.01C201.887 161.148 201.019 159.44 198.807 159.44C196.693 159.44 195.517 161.162 195.517 163.346C195.517 165.544 196.595 167.182 198.849 167.182C200.431 167.182 201.523 166.342 201.789 165.068ZM204.279 157.48V158.012C204.279 159.426 204.055 159.664 203.061 159.664H202.837V160.588H204.181V165.152C204.181 166.412 204.755 167.112 206.197 167.112C206.841 167.112 207.359 167.028 207.359 167.028V165.964C207.359 165.964 206.925 166.034 206.547 166.034C205.749 166.034 205.427 165.726 205.427 164.942V160.588H207.247V159.622H205.427V157.48H204.279ZM208.548 168.638H209.458L210.592 165.278H209.024L208.548 168.638ZM221.749 161.848C221.623 160.112 220.293 159.44 218.823 159.44C216.751 159.44 215.519 161.092 215.519 163.346C215.519 165.684 216.667 167.168 218.795 167.168C220.391 167.168 221.609 166.3 221.791 164.592H220.615C220.573 165.152 220.209 166.188 218.809 166.188C217.325 166.188 216.807 164.998 216.807 163.29C216.807 161.568 217.507 160.406 218.837 160.406C219.901 160.406 220.433 161.092 220.517 161.848H221.749ZM226.384 167.182C228.456 167.182 229.702 165.614 229.702 163.304C229.702 161.022 228.61 159.44 226.412 159.44C224.354 159.44 223.094 161.022 223.094 163.304C223.094 165.614 224.214 167.182 226.384 167.182ZM226.398 160.406C227.812 160.406 228.4 161.512 228.4 163.304C228.4 165.11 227.798 166.202 226.426 166.202C224.998 166.202 224.396 165.11 224.396 163.304C224.396 161.512 225.054 160.406 226.398 160.406ZM236.385 167H237.645V161.862C237.645 160.112 236.707 159.44 235.293 159.44C234.117 159.44 233.263 160.112 232.913 160.868H232.885V159.622H231.695V167H232.955V162.576C232.955 161.372 233.585 160.49 234.957 160.49C235.447 160.49 235.867 160.63 236.119 160.98C236.385 161.33 236.385 161.918 236.385 162.45V167ZM245.056 161.47C244.93 160.182 244.02 159.44 242.424 159.44C240.744 159.44 239.75 160.378 239.75 161.68C239.75 162.968 240.45 163.514 241.766 163.724L242.9 163.892C243.908 164.06 244.062 164.382 244.062 164.97C244.062 165.74 243.432 166.216 242.424 166.216C241.122 166.216 240.8 165.488 240.744 164.914H239.512C239.61 166.496 240.87 167.182 242.396 167.182C244.076 167.182 245.28 166.384 245.28 164.9C245.28 163.626 244.72 162.996 243.18 162.758L242.046 162.59C241.304 162.464 240.94 162.184 240.94 161.582C240.94 160.896 241.514 160.392 242.382 160.392C243.25 160.392 243.782 160.812 243.852 161.47H245.056ZM251.746 162.66H247.966C248.12 161.316 248.764 160.392 249.94 160.392C251.228 160.392 251.718 161.344 251.746 162.576V162.66ZM252.936 165.068H251.718C251.592 165.502 251.27 166.216 250.038 166.216C248.652 166.216 248.036 165.18 247.952 163.654H253.034V163.01C253.034 161.148 252.166 159.44 249.954 159.44C247.84 159.44 246.664 161.162 246.664 163.346C246.664 165.544 247.742 167.182 249.996 167.182C251.578 167.182 252.67 166.342 252.936 165.068ZM260.659 161.848C260.533 160.112 259.203 159.44 257.733 159.44C255.661 159.44 254.429 161.092 254.429 163.346C254.429 165.684 255.577 167.168 257.705 167.168C259.301 167.168 260.519 166.3 260.701 164.592H259.525C259.483 165.152 259.119 166.188 257.719 166.188C256.235 166.188 255.717 164.998 255.717 163.29C255.717 161.568 256.417 160.406 257.747 160.406C258.811 160.406 259.343 161.092 259.427 161.848H260.659ZM262.999 157.48V158.012C262.999 159.426 262.775 159.664 261.781 159.664H261.557V160.588H262.901V165.152C262.901 166.412 263.475 167.112 264.917 167.112C265.561 167.112 266.079 167.028 266.079 167.028V165.964C266.079 165.964 265.645 166.034 265.267 166.034C264.469 166.034 264.147 165.726 264.147 164.942V160.588H265.967V159.622H264.147V157.48H262.999ZM272.24 162.66H268.46C268.614 161.316 269.258 160.392 270.434 160.392C271.722 160.392 272.212 161.344 272.24 162.576V162.66ZM273.43 165.068H272.212C272.086 165.502 271.764 166.216 270.532 166.216C269.146 166.216 268.53 165.18 268.446 163.654H273.528V163.01C273.528 161.148 272.66 159.44 270.448 159.44C268.334 159.44 267.158 161.162 267.158 163.346C267.158 165.544 268.236 167.182 270.49 167.182C272.072 167.182 273.164 166.342 273.43 165.068ZM275.919 157.48V158.012C275.919 159.426 275.695 159.664 274.701 159.664H274.477V160.588H275.821V165.152C275.821 166.412 276.395 167.112 277.837 167.112C278.481 167.112 278.999 167.028 278.999 167.028V165.964C278.999 165.964 278.565 166.034 278.187 166.034C277.389 166.034 277.067 165.726 277.067 164.942V160.588H278.887V159.622H277.067V157.48H275.919ZM281.886 159.622H280.64V164.76C280.64 166.496 281.592 167.182 283.006 167.182C284.182 167.182 284.994 166.496 285.33 165.74H285.358V167H286.562V159.622H285.302V163.612C285.302 165.236 284.658 166.146 283.286 166.146C282.796 166.146 282.404 165.992 282.152 165.656C281.886 165.306 281.886 164.69 281.886 164.158V159.622ZM289.185 167H290.445V162.982C290.445 161.554 291.313 160.798 292.629 160.798H292.867V159.482H292.741C291.663 159.482 290.739 160.238 290.403 161.008H290.375V159.622H289.185V167ZM300.372 166.104C299.574 166.104 299.084 165.698 299.084 164.942C299.084 164.55 299.21 164.242 299.49 164.032C299.966 163.682 300.876 163.556 302.472 163.486V163.654C302.472 165.474 301.31 166.104 300.372 166.104ZM299.392 161.638C299.434 161.008 299.84 160.378 300.932 160.378C301.968 160.378 302.472 160.896 302.472 162.226V162.548C300.82 162.604 299.672 162.744 298.902 163.15C298.146 163.528 297.796 164.2 297.796 165.012C297.796 166.328 298.664 167.126 300.134 167.126C301.226 167.126 302.108 166.622 302.5 165.754H302.528C302.654 166.636 303.046 167.056 304.222 167.056H304.376V166.034C303.83 166.02 303.704 165.782 303.704 165.194V162.184C303.704 160.21 302.808 159.44 300.974 159.44C299.21 159.44 298.216 160.336 298.188 161.638H299.392ZM310.965 163.808C310.965 165.152 310.167 166.188 308.865 166.188C307.395 166.188 306.905 164.97 306.905 163.304C306.905 161.568 307.549 160.448 308.963 160.448C310.139 160.448 310.965 161.456 310.965 163.024V163.808ZM312.197 155.968H310.937V160.742H310.909C310.615 160.056 309.901 159.44 308.795 159.44C306.933 159.44 305.617 160.826 305.617 163.36C305.617 166.202 307.059 167.182 308.627 167.182C309.761 167.182 310.559 166.51 310.951 165.782H310.993V167H312.197V155.968ZM314.806 157.942H316.136V156.584H314.806V157.942ZM314.834 167H316.108V159.622H314.834V167ZM319.962 163.584V162.8C319.962 161.554 320.76 160.448 322.062 160.448C323.574 160.448 324.036 161.638 324.036 163.206C324.036 165.138 323.392 166.188 322.076 166.188C320.676 166.188 319.962 165.04 319.962 163.584ZM318.744 169.632H320.004V165.922H320.032C320.312 166.58 321.18 167.182 322.258 167.182C323.924 167.182 325.31 165.894 325.31 163.206C325.31 160.406 323.91 159.44 322.342 159.44C321.222 159.44 320.424 160.07 319.99 160.854H319.962V159.622H318.744V169.632ZM327.274 157.942H328.604V156.584H327.274V157.942ZM327.302 167H328.576V159.622H327.302V167ZM336.056 161.47C335.93 160.182 335.02 159.44 333.424 159.44C331.744 159.44 330.75 160.378 330.75 161.68C330.75 162.968 331.45 163.514 332.766 163.724L333.9 163.892C334.908 164.06 335.062 164.382 335.062 164.97C335.062 165.74 334.432 166.216 333.424 166.216C332.122 166.216 331.8 165.488 331.744 164.914H330.512C330.61 166.496 331.87 167.182 333.396 167.182C335.076 167.182 336.28 166.384 336.28 164.9C336.28 163.626 335.72 162.996 334.18 162.758L333.046 162.59C332.304 162.464 331.94 162.184 331.94 161.582C331.94 160.896 332.514 160.392 333.382 160.392C334.25 160.392 334.782 160.812 334.852 161.47H336.056ZM343.894 161.848C343.768 160.112 342.438 159.44 340.968 159.44C338.896 159.44 337.664 161.092 337.664 163.346C337.664 165.684 338.812 167.168 340.94 167.168C342.536 167.168 343.754 166.3 343.936 164.592H342.76C342.718 165.152 342.354 166.188 340.954 166.188C339.47 166.188 338.952 164.998 338.952 163.29C338.952 161.568 339.652 160.406 340.982 160.406C342.046 160.406 342.578 161.092 342.662 161.848H343.894ZM345.8 157.942H347.13V156.584H345.8V157.942ZM345.828 167H347.102V159.622H345.828V167ZM354.428 167H355.688V161.862C355.688 160.112 354.75 159.44 353.336 159.44C352.16 159.44 351.306 160.112 350.956 160.868H350.928V159.622H349.738V167H350.998V162.576C350.998 161.372 351.628 160.49 353 160.49C353.49 160.49 353.91 160.63 354.162 160.98C354.428 161.33 354.428 161.918 354.428 162.45V167ZM362.945 163.654C362.945 164.914 362.091 165.95 360.901 165.95C359.347 165.95 358.885 164.83 358.885 163.206C358.885 161.54 359.515 160.434 360.845 160.434C362.119 160.434 362.945 161.442 362.945 162.912V163.654ZM360.789 169.786C362.791 169.786 364.149 168.89 364.149 166.818V159.622H362.945V160.784H362.917C362.609 160.098 361.895 159.44 360.705 159.44C358.885 159.44 357.597 160.77 357.597 163.206C357.597 165.936 359.011 166.902 360.551 166.902C361.657 166.902 362.525 166.272 362.903 165.544H362.917V166.636C362.917 168.26 362.217 168.778 360.817 168.778C359.613 168.778 359.137 168.372 358.997 167.742H357.779C357.947 169.268 359.389 169.786 360.789 169.786ZM30.74 182.66H26.96C27.114 181.316 27.758 180.392 28.934 180.392C30.222 180.392 30.712 181.344 30.74 182.576V182.66ZM31.93 185.068H30.712C30.586 185.502 30.264 186.216 29.032 186.216C27.646 186.216 27.03 185.18 26.946 183.654H32.028V183.01C32.028 181.148 31.16 179.44 28.948 179.44C26.834 179.44 25.658 181.162 25.658 183.346C25.658 185.544 26.736 187.182 28.99 187.182C30.572 187.182 31.664 186.342 31.93 185.068ZM34.0133 187H35.2733V175.968H34.0133V187ZM37.8681 177.942H39.1981V176.584H37.8681V177.942ZM37.8961 187H39.1701V179.622H37.8961V187ZM42.2122 177.48V178.012C42.2122 179.426 41.9882 179.664 40.9942 179.664H40.7702V180.588H42.1142V185.152C42.1142 186.412 42.6882 187.112 44.1302 187.112C44.7742 187.112 45.2922 187.028 45.2922 187.028V185.964C45.2922 185.964 44.8582 186.034 44.4802 186.034C43.6822 186.034 43.3602 185.726 43.3602 184.942V180.588H45.1802V179.622H43.3602V177.48H42.2122ZM46.4813 188.638H47.3913L48.5253 185.278H46.9573L46.4813 188.638ZM58.9549 181.47C58.8289 180.182 57.9189 179.44 56.3229 179.44C54.6429 179.44 53.6489 180.378 53.6489 181.68C53.6489 182.968 54.3489 183.514 55.6649 183.724L56.7989 183.892C57.8069 184.06 57.9609 184.382 57.9609 184.97C57.9609 185.74 57.3309 186.216 56.3229 186.216C55.0209 186.216 54.6989 185.488 54.6429 184.914H53.4109C53.5089 186.496 54.7689 187.182 56.2949 187.182C57.9749 187.182 59.1789 186.384 59.1789 184.9C59.1789 183.626 58.6189 182.996 57.0789 182.758L55.9449 182.59C55.2029 182.464 54.8389 182.184 54.8389 181.582C54.8389 180.896 55.4129 180.392 56.2809 180.392C57.1489 180.392 57.6809 180.812 57.7509 181.47H58.9549ZM65.6443 182.66H61.8643C62.0183 181.316 62.6623 180.392 63.8383 180.392C65.1263 180.392 65.6163 181.344 65.6443 182.576V182.66ZM66.8343 185.068H65.6163C65.4903 185.502 65.1683 186.216 63.9363 186.216C62.5503 186.216 61.9343 185.18 61.8503 183.654H66.9323V183.01C66.9323 181.148 66.0643 179.44 63.8523 179.44C61.7383 179.44 60.5623 181.162 60.5623 183.346C60.5623 185.544 61.6403 187.182 63.8943 187.182C65.4763 187.182 66.5683 186.342 66.8343 185.068ZM73.6759 183.808C73.6759 185.152 72.8779 186.188 71.5759 186.188C70.1059 186.188 69.6159 184.97 69.6159 183.304C69.6159 181.568 70.2599 180.448 71.6739 180.448C72.8499 180.448 73.6759 181.456 73.6759 183.024V183.808ZM74.9079 175.968H73.6479V180.742H73.6199C73.3259 180.056 72.6119 179.44 71.5059 179.44C69.6439 179.44 68.3279 180.826 68.3279 183.36C68.3279 186.202 69.7699 187.182 71.3379 187.182C72.4719 187.182 73.2699 186.51 73.6619 185.782H73.7039V187H74.9079V175.968ZM86.049 183.808C86.049 185.152 85.251 186.188 83.949 186.188C82.479 186.188 81.989 184.97 81.989 183.304C81.989 181.568 82.633 180.448 84.047 180.448C85.223 180.448 86.049 181.456 86.049 183.024V183.808ZM87.281 175.968H86.021V180.742H85.993C85.699 180.056 84.985 179.44 83.879 179.44C82.017 179.44 80.701 180.826 80.701 183.36C80.701 186.202 82.143 187.182 83.711 187.182C84.845 187.182 85.643 186.51 86.035 185.782H86.077V187H87.281V175.968ZM92.5496 187.182C94.6216 187.182 95.8676 185.614 95.8676 183.304C95.8676 181.022 94.7756 179.44 92.5776 179.44C90.5196 179.44 89.2596 181.022 89.2596 183.304C89.2596 185.614 90.3796 187.182 92.5496 187.182ZM92.5636 180.406C93.9776 180.406 94.5656 181.512 94.5656 183.304C94.5656 185.11 93.9636 186.202 92.5916 186.202C91.1636 186.202 90.5616 185.11 90.5616 183.304C90.5616 181.512 91.2196 180.406 92.5636 180.406ZM106.099 182.66H102.319C102.473 181.316 103.117 180.392 104.293 180.392C105.581 180.392 106.071 181.344 106.099 182.576V182.66ZM107.289 185.068H106.071C105.945 185.502 105.623 186.216 104.391 186.216C103.005 186.216 102.389 185.18 102.305 183.654H107.387V183.01C107.387 181.148 106.519 179.44 104.307 179.44C102.193 179.44 101.017 181.162 101.017 183.346C101.017 185.544 102.095 187.182 104.349 187.182C105.931 187.182 107.023 186.342 107.289 185.068ZM109.345 177.942H110.675V176.584H109.345V177.942ZM109.373 187H110.647V179.622H109.373V187ZM114.501 179.622H113.255V184.76C113.255 186.496 114.207 187.182 115.621 187.182C116.797 187.182 117.609 186.496 117.945 185.74H117.973V187H119.177V179.622H117.917V183.612C117.917 185.236 117.273 186.146 115.901 186.146C115.411 186.146 115.019 185.992 114.767 185.656C114.501 185.306 114.501 184.69 114.501 184.158V179.622ZM126.644 181.47C126.518 180.182 125.608 179.44 124.012 179.44C122.332 179.44 121.338 180.378 121.338 181.68C121.338 182.968 122.038 183.514 123.354 183.724L124.488 183.892C125.496 184.06 125.65 184.382 125.65 184.97C125.65 185.74 125.02 186.216 124.012 186.216C122.71 186.216 122.388 185.488 122.332 184.914H121.1C121.198 186.496 122.458 187.182 123.984 187.182C125.664 187.182 126.868 186.384 126.868 184.9C126.868 183.626 126.308 182.996 124.768 182.758L123.634 182.59C122.892 182.464 122.528 182.184 122.528 181.582C122.528 180.896 123.102 180.392 123.97 180.392C124.838 180.392 125.37 180.812 125.44 181.47H126.644ZM128.841 187H130.101V182.548C130.101 181.372 130.717 180.49 132.089 180.49C132.579 180.49 132.985 180.63 133.237 180.98C133.503 181.344 133.503 181.904 133.503 182.436V187H134.763V182.576C134.763 181.372 135.379 180.49 136.751 180.49C137.241 180.49 137.647 180.616 137.899 180.966C138.165 181.33 138.165 181.904 138.165 182.436V187H139.425V181.862C139.425 180.112 138.473 179.44 137.087 179.44C135.869 179.44 134.959 180.196 134.679 180.966H134.651C134.385 179.944 133.545 179.44 132.425 179.44C131.249 179.44 130.395 180.112 130.059 180.868H130.031V179.622H128.841V187ZM144.626 187.182C146.698 187.182 147.944 185.614 147.944 183.304C147.944 181.022 146.852 179.44 144.654 179.44C142.596 179.44 141.336 181.022 141.336 183.304C141.336 185.614 142.456 187.182 144.626 187.182ZM144.64 180.406C146.054 180.406 146.642 181.512 146.642 183.304C146.642 185.11 146.04 186.202 144.668 186.202C143.24 186.202 142.638 185.11 142.638 183.304C142.638 181.512 143.296 180.406 144.64 180.406ZM154.764 183.808C154.764 185.152 153.966 186.188 152.664 186.188C151.194 186.188 150.704 184.97 150.704 183.304C150.704 181.568 151.348 180.448 152.762 180.448C153.938 180.448 154.764 181.456 154.764 183.024V183.808ZM155.996 175.968H154.736V180.742H154.708C154.414 180.056 153.7 179.44 152.594 179.44C150.732 179.44 149.416 180.826 149.416 183.36C149.416 186.202 150.858 187.182 152.426 187.182C153.56 187.182 154.358 186.51 154.75 185.782H154.792V187H155.996V175.968ZM162.853 177.48V178.012C162.853 179.426 162.629 179.664 161.635 179.664H161.411V180.588H162.755V185.152C162.755 186.412 163.329 187.112 164.771 187.112C165.415 187.112 165.933 187.028 165.933 187.028V185.964C165.933 185.964 165.499 186.034 165.121 186.034C164.323 186.034 164.001 185.726 164.001 184.942V180.588H165.821V179.622H164.001V177.48H162.853ZM172.094 182.66H168.314C168.468 181.316 169.112 180.392 170.288 180.392C171.576 180.392 172.066 181.344 172.094 182.576V182.66ZM173.284 185.068H172.066C171.94 185.502 171.618 186.216 170.386 186.216C169 186.216 168.384 185.18 168.3 183.654H173.382V183.01C173.382 181.148 172.514 179.44 170.302 179.44C168.188 179.44 167.012 181.162 167.012 183.346C167.012 185.544 168.09 187.182 170.344 187.182C171.926 187.182 173.018 186.342 173.284 185.068ZM175.298 187H176.558V182.548C176.558 181.372 177.174 180.49 178.546 180.49C179.036 180.49 179.442 180.63 179.694 180.98C179.96 181.344 179.96 181.904 179.96 182.436V187H181.22V182.576C181.22 181.372 181.836 180.49 183.208 180.49C183.698 180.49 184.104 180.616 184.356 180.966C184.622 181.33 184.622 181.904 184.622 182.436V187H185.882V181.862C185.882 180.112 184.93 179.44 183.544 179.44C182.326 179.44 181.416 180.196 181.136 180.966H181.108C180.842 179.944 180.002 179.44 178.882 179.44C177.706 179.44 176.852 180.112 176.516 180.868H176.488V179.622H175.298V187ZM189.669 183.584V182.8C189.669 181.554 190.467 180.448 191.769 180.448C193.281 180.448 193.743 181.638 193.743 183.206C193.743 185.138 193.099 186.188 191.783 186.188C190.383 186.188 189.669 185.04 189.669 183.584ZM188.451 189.632H189.711V185.922H189.739C190.019 186.58 190.887 187.182 191.965 187.182C193.631 187.182 195.017 185.894 195.017 183.206C195.017 180.406 193.617 179.44 192.049 179.44C190.929 179.44 190.131 180.07 189.697 180.854H189.669V179.622H188.451V189.632ZM199.778 187.182C201.85 187.182 203.096 185.614 203.096 183.304C203.096 181.022 202.004 179.44 199.806 179.44C197.748 179.44 196.488 181.022 196.488 183.304C196.488 185.614 197.608 187.182 199.778 187.182ZM199.792 180.406C201.206 180.406 201.794 181.512 201.794 183.304C201.794 185.11 201.192 186.202 199.82 186.202C198.392 186.202 197.79 185.11 197.79 183.304C197.79 181.512 198.448 180.406 199.792 180.406ZM205.089 187H206.349V182.982C206.349 181.554 207.217 180.798 208.533 180.798H208.771V179.482H208.645C207.567 179.482 206.643 180.238 206.307 181.008H206.279V179.622H205.089V187ZM214.345 177.942H215.675V176.584H214.345V177.942ZM214.373 187H215.647V179.622H214.373V187ZM222.973 187H224.233V181.862C224.233 180.112 223.295 179.44 221.881 179.44C220.705 179.44 219.851 180.112 219.501 180.868H219.473V179.622H218.283V187H219.543V182.576C219.543 181.372 220.173 180.49 221.545 180.49C222.035 180.49 222.455 180.63 222.707 180.98C222.973 181.33 222.973 181.918 222.973 182.45V187ZM232.372 181.848C232.246 180.112 230.916 179.44 229.446 179.44C227.374 179.44 226.142 181.092 226.142 183.346C226.142 185.684 227.29 187.168 229.418 187.168C231.014 187.168 232.232 186.3 232.414 184.592H231.238C231.196 185.152 230.832 186.188 229.432 186.188C227.948 186.188 227.43 184.998 227.43 183.29C227.43 181.568 228.13 180.406 229.46 180.406C230.524 180.406 231.056 181.092 231.14 181.848H232.372ZM234.278 177.942H235.608V176.584H234.278V177.942ZM234.306 187H235.58V179.622H234.306V187ZM242.906 183.808C242.906 185.152 242.108 186.188 240.806 186.188C239.336 186.188 238.846 184.97 238.846 183.304C238.846 181.568 239.49 180.448 240.904 180.448C242.08 180.448 242.906 181.456 242.906 183.024V183.808ZM244.138 175.968H242.878V180.742H242.85C242.556 180.056 241.842 179.44 240.736 179.44C238.874 179.44 237.558 180.826 237.558 183.36C237.558 186.202 239 187.182 240.568 187.182C241.702 187.182 242.5 186.51 242.892 185.782H242.934V187H244.138V175.968ZM246.747 177.942H248.077V176.584H246.747V177.942ZM246.775 187H248.049V179.622H246.775V187ZM255.375 183.808C255.375 185.152 254.577 186.188 253.275 186.188C251.805 186.188 251.315 184.97 251.315 183.304C251.315 181.568 251.959 180.448 253.373 180.448C254.549 180.448 255.375 181.456 255.375 183.024V183.808ZM256.607 175.968H255.347V180.742H255.319C255.025 180.056 254.311 179.44 253.205 179.44C251.343 179.44 250.027 180.826 250.027 183.36C250.027 186.202 251.469 187.182 253.037 187.182C254.171 187.182 254.969 186.51 255.361 185.782H255.403V187H256.607V175.968ZM260.462 179.622H259.216V184.76C259.216 186.496 260.168 187.182 261.582 187.182C262.758 187.182 263.57 186.496 263.906 185.74H263.934V187H265.138V179.622H263.878V183.612C263.878 185.236 263.234 186.146 261.862 186.146C261.372 186.146 260.98 185.992 260.728 185.656C260.462 185.306 260.462 184.69 260.462 184.158V179.622ZM272.451 187H273.711V181.862C273.711 180.112 272.773 179.44 271.359 179.44C270.183 179.44 269.329 180.112 268.979 180.868H268.951V179.622H267.761V187H269.021V182.576C269.021 181.372 269.651 180.49 271.023 180.49C271.513 180.49 271.933 180.63 272.185 180.98C272.451 181.33 272.451 181.918 272.451 182.45V187ZM276.685 177.48V178.012C276.685 179.426 276.461 179.664 275.467 179.664H275.243V180.588H276.587V185.152C276.587 186.412 277.161 187.112 278.603 187.112C279.247 187.112 279.765 187.028 279.765 187.028V185.964C279.765 185.964 279.331 186.034 278.953 186.034C278.155 186.034 277.833 185.726 277.833 184.942V180.588H279.653V179.622H277.833V177.48H276.685ZM286.397 179.622H285.151V184.76C285.151 186.496 286.103 187.182 287.517 187.182C288.693 187.182 289.505 186.496 289.841 185.74H289.869V187H291.073V179.622H289.813V183.612C289.813 185.236 289.169 186.146 287.797 186.146C287.307 186.146 286.915 185.992 286.663 185.656C286.397 185.306 286.397 184.69 286.397 184.158V179.622ZM294.103 177.48V178.012C294.103 179.426 293.879 179.664 292.885 179.664H292.661V180.588H294.005V185.152C294.005 186.412 294.579 187.112 296.021 187.112C296.665 187.112 297.183 187.028 297.183 187.028V185.964C297.183 185.964 296.749 186.034 296.371 186.034C295.573 186.034 295.251 185.726 295.251 184.942V180.588H297.071V179.622H295.251V177.48H294.103ZM302.597 187H303.857V175.968H302.597V187ZM308.316 186.104C307.518 186.104 307.028 185.698 307.028 184.942C307.028 184.55 307.154 184.242 307.434 184.032C307.91 183.682 308.82 183.556 310.416 183.486V183.654C310.416 185.474 309.254 186.104 308.316 186.104ZM307.336 181.638C307.378 181.008 307.784 180.378 308.876 180.378C309.912 180.378 310.416 180.896 310.416 182.226V182.548C308.764 182.604 307.616 182.744 306.846 183.15C306.09 183.528 305.74 184.2 305.74 185.012C305.74 186.328 306.608 187.126 308.078 187.126C309.17 187.126 310.052 186.622 310.444 185.754H310.472C310.598 186.636 310.99 187.056 312.166 187.056H312.32V186.034C311.774 186.02 311.648 185.782 311.648 185.194V182.184C311.648 180.21 310.752 179.44 308.918 179.44C307.154 179.44 306.16 180.336 306.132 181.638H307.336ZM314.15 187H315.34V185.824H315.368C315.746 186.538 316.516 187.182 317.678 187.182C319.344 187.182 320.716 185.894 320.716 183.206C320.716 180.406 319.316 179.44 317.748 179.44C316.642 179.44 315.83 180.042 315.424 180.84H315.41V175.968H314.15V187ZM317.482 186.188C316.082 186.188 315.368 185.04 315.368 183.584V182.8C315.368 181.554 316.138 180.448 317.468 180.448C318.98 180.448 319.442 181.638 319.442 183.206C319.442 185.138 318.798 186.188 317.482 186.188ZM325.477 187.182C327.549 187.182 328.795 185.614 328.795 183.304C328.795 181.022 327.703 179.44 325.505 179.44C323.447 179.44 322.187 181.022 322.187 183.304C322.187 185.614 323.307 187.182 325.477 187.182ZM325.491 180.406C326.905 180.406 327.493 181.512 327.493 183.304C327.493 185.11 326.891 186.202 325.519 186.202C324.091 186.202 323.489 185.11 323.489 183.304C323.489 181.512 324.147 180.406 325.491 180.406ZM330.789 187H332.049V182.982C332.049 181.554 332.917 180.798 334.233 180.798H334.471V179.482H334.345C333.267 179.482 332.343 180.238 332.007 181.008H331.979V179.622H330.789V187ZM340.545 182.66H336.765C336.919 181.316 337.563 180.392 338.739 180.392C340.027 180.392 340.517 181.344 340.545 182.576V182.66ZM341.735 185.068H340.517C340.391 185.502 340.069 186.216 338.837 186.216C337.451 186.216 336.835 185.18 336.751 183.654H341.833V183.01C341.833 181.148 340.965 179.44 338.753 179.44C336.639 179.44 335.463 181.162 335.463 183.346C335.463 185.544 336.541 187.182 338.795 187.182C340.377 187.182 341.469 186.342 341.735 185.068ZM352.056 182.66H348.276C348.43 181.316 349.074 180.392 350.25 180.392C351.538 180.392 352.028 181.344 352.056 182.576V182.66ZM353.246 185.068H352.028C351.902 185.502 351.58 186.216 350.348 186.216C348.962 186.216 348.346 185.18 348.262 183.654H353.344V183.01C353.344 181.148 352.476 179.44 350.264 179.44C348.15 179.44 346.974 181.162 346.974 183.346C346.974 185.544 348.052 187.182 350.306 187.182C351.888 187.182 352.98 186.342 353.246 185.068ZM355.736 177.48V178.012C355.736 179.426 355.512 179.664 354.518 179.664H354.294V180.588H355.638V185.152C355.638 186.412 356.212 187.112 357.654 187.112C358.298 187.112 358.816 187.028 358.816 187.028V185.964C358.816 185.964 358.382 186.034 358.004 186.034C357.206 186.034 356.884 185.726 356.884 184.942V180.588H358.704V179.622H356.884V177.48H355.736ZM31.006 203.808C31.006 205.152 30.208 206.188 28.906 206.188C27.436 206.188 26.946 204.97 26.946 203.304C26.946 201.568 27.59 200.448 29.004 200.448C30.18 200.448 31.006 201.456 31.006 203.024V203.808ZM32.238 195.968H30.978V200.742H30.95C30.656 200.056 29.942 199.44 28.836 199.44C26.974 199.44 25.658 200.826 25.658 203.36C25.658 206.202 27.1 207.182 28.668 207.182C29.802 207.182 30.6 206.51 30.992 205.782H31.034V207H32.238V195.968ZM37.5066 207.182C39.5786 207.182 40.8246 205.614 40.8246 203.304C40.8246 201.022 39.7326 199.44 37.5346 199.44C35.4766 199.44 34.2166 201.022 34.2166 203.304C34.2166 205.614 35.3366 207.182 37.5066 207.182ZM37.5206 200.406C38.9346 200.406 39.5226 201.512 39.5226 203.304C39.5226 205.11 38.9206 206.202 37.5486 206.202C36.1206 206.202 35.5186 205.11 35.5186 203.304C35.5186 201.512 36.1766 200.406 37.5206 200.406ZM42.818 207H44.078V195.968H42.818V207ZM49.3328 207.182C51.4048 207.182 52.6508 205.614 52.6508 203.304C52.6508 201.022 51.5588 199.44 49.3608 199.44C47.3028 199.44 46.0428 201.022 46.0428 203.304C46.0428 205.614 47.1628 207.182 49.3328 207.182ZM49.3468 200.406C50.7608 200.406 51.3488 201.512 51.3488 203.304C51.3488 205.11 50.7468 206.202 49.3748 206.202C47.9468 206.202 47.3448 205.11 47.3448 203.304C47.3448 201.512 48.0028 200.406 49.3468 200.406ZM54.6441 207H55.9041V202.982C55.9041 201.554 56.7721 200.798 58.0881 200.798H58.3261V199.482H58.2001C57.1221 199.482 56.1981 200.238 55.8621 201.008H55.8341V199.622H54.6441V207ZM64.4002 202.66H60.6202C60.7742 201.316 61.4182 200.392 62.5942 200.392C63.8822 200.392 64.3722 201.344 64.4002 202.576V202.66ZM65.5902 205.068H64.3722C64.2462 205.502 63.9242 206.216 62.6922 206.216C61.3062 206.216 60.6902 205.18 60.6062 203.654H65.6882V203.01C65.6882 201.148 64.8202 199.44 62.6082 199.44C60.4942 199.44 59.3182 201.162 59.3182 203.346C59.3182 205.544 60.3962 207.182 62.6502 207.182C64.2322 207.182 65.3242 206.342 65.5902 205.068ZM71.4879 207H72.7479V202.548C72.7479 201.372 73.3639 200.49 74.7359 200.49C75.2259 200.49 75.6319 200.63 75.8839 200.98C76.1499 201.344 76.1499 201.904 76.1499 202.436V207H77.4099V202.576C77.4099 201.372 78.0259 200.49 79.3979 200.49C79.8879 200.49 80.2939 200.616 80.5459 200.966C80.8119 201.33 80.8119 201.904 80.8119 202.436V207H82.0719V201.862C82.0719 200.112 81.1199 199.44 79.7339 199.44C78.5159 199.44 77.6059 200.196 77.3259 200.966H77.2979C77.0319 199.944 76.1919 199.44 75.0719 199.44C73.8959 199.44 73.0419 200.112 72.7059 200.868H72.6779V199.622H71.4879V207ZM86.5442 206.104C85.7462 206.104 85.2562 205.698 85.2562 204.942C85.2562 204.55 85.3822 204.242 85.6622 204.032C86.1382 203.682 87.0482 203.556 88.6442 203.486V203.654C88.6442 205.474 87.4822 206.104 86.5442 206.104ZM85.5642 201.638C85.6062 201.008 86.0122 200.378 87.1042 200.378C88.1402 200.378 88.6442 200.896 88.6442 202.226V202.548C86.9922 202.604 85.8442 202.744 85.0742 203.15C84.3182 203.528 83.9682 204.2 83.9682 205.012C83.9682 206.328 84.8362 207.126 86.3062 207.126C87.3982 207.126 88.2802 206.622 88.6722 205.754H88.7002C88.8262 206.636 89.2182 207.056 90.3942 207.056H90.5482V206.034C90.0022 206.02 89.8762 205.782 89.8762 205.194V202.184C89.8762 200.21 88.9802 199.44 87.1462 199.44C85.3822 199.44 84.3882 200.336 84.3602 201.638H85.5642ZM97.1369 203.654C97.1369 204.914 96.2829 205.95 95.0929 205.95C93.5389 205.95 93.0769 204.83 93.0769 203.206C93.0769 201.54 93.7069 200.434 95.0369 200.434C96.3109 200.434 97.1369 201.442 97.1369 202.912V203.654ZM94.9809 209.786C96.9829 209.786 98.3409 208.89 98.3409 206.818V199.622H97.1369V200.784H97.1089C96.8009 200.098 96.0869 199.44 94.8969 199.44C93.0769 199.44 91.7889 200.77 91.7889 203.206C91.7889 205.936 93.2029 206.902 94.7429 206.902C95.8489 206.902 96.7169 206.272 97.0949 205.544H97.1089V206.636C97.1089 208.26 96.4089 208.778 95.0089 208.778C93.8049 208.778 93.3289 208.372 93.1889 207.742H91.9709C92.1389 209.268 93.5809 209.786 94.9809 209.786ZM105.668 207H106.928V201.862C106.928 200.112 105.99 199.44 104.576 199.44C103.4 199.44 102.546 200.112 102.196 200.868H102.168V199.622H100.978V207H102.238V202.576C102.238 201.372 102.868 200.49 104.24 200.49C104.73 200.49 105.15 200.63 105.402 200.98C105.668 201.33 105.668 201.918 105.668 202.45V207ZM111.4 206.104C110.602 206.104 110.112 205.698 110.112 204.942C110.112 204.55 110.238 204.242 110.518 204.032C110.994 203.682 111.904 203.556 113.5 203.486V203.654C113.5 205.474 112.338 206.104 111.4 206.104ZM110.42 201.638C110.462 201.008 110.868 200.378 111.96 200.378C112.996 200.378 113.5 200.896 113.5 202.226V202.548C111.848 202.604 110.7 202.744 109.93 203.15C109.174 203.528 108.824 204.2 108.824 205.012C108.824 206.328 109.692 207.126 111.162 207.126C112.254 207.126 113.136 206.622 113.528 205.754H113.556C113.682 206.636 114.074 207.056 115.25 207.056H115.404V206.034C114.858 206.02 114.732 205.782 114.732 205.194V202.184C114.732 200.21 113.836 199.44 112.002 199.44C110.238 199.44 109.244 200.336 109.216 201.638H110.42ZM122.952 206.104C122.154 206.104 121.664 205.698 121.664 204.942C121.664 204.55 121.79 204.242 122.07 204.032C122.546 203.682 123.456 203.556 125.052 203.486V203.654C125.052 205.474 123.89 206.104 122.952 206.104ZM121.972 201.638C122.014 201.008 122.42 200.378 123.512 200.378C124.548 200.378 125.052 200.896 125.052 202.226V202.548C123.4 202.604 122.252 202.744 121.482 203.15C120.726 203.528 120.376 204.2 120.376 205.012C120.376 206.328 121.244 207.126 122.714 207.126C123.806 207.126 124.688 206.622 125.08 205.754H125.108C125.234 206.636 125.626 207.056 126.802 207.056H126.956V206.034C126.41 206.02 126.284 205.782 126.284 205.194V202.184C126.284 200.21 125.388 199.44 123.554 199.44C121.79 199.44 120.796 200.336 120.768 201.638H121.972ZM128.787 207H130.047V195.968H128.787V207ZM132.642 197.942H133.972V196.584H132.642V197.942ZM132.67 207H133.944V199.622H132.67V207ZM142.502 199.622H141.27V200.742H141.242C140.948 200.056 140.206 199.44 139.1 199.44C137.238 199.44 135.922 200.826 135.922 203.36C135.922 206.23 137.364 207.182 138.932 207.182C140.066 207.182 140.85 206.538 141.2 205.88H141.242V209.632H142.502V199.622ZM139.17 206.188C137.7 206.188 137.21 204.97 137.21 203.304C137.21 201.568 137.882 200.448 139.268 200.448C140.444 200.448 141.27 201.456 141.27 203.024V203.808C141.27 205.152 140.472 206.188 139.17 206.188ZM146.288 199.622H145.042V204.76C145.042 206.496 145.994 207.182 147.408 207.182C148.584 207.182 149.396 206.496 149.732 205.74H149.76V207H150.964V199.622H149.704V203.612C149.704 205.236 149.06 206.146 147.688 206.146C147.198 206.146 146.806 205.992 146.554 205.656C146.288 205.306 146.288 204.69 146.288 204.158V199.622ZM155.423 206.104C154.625 206.104 154.135 205.698 154.135 204.942C154.135 204.55 154.261 204.242 154.541 204.032C155.017 203.682 155.927 203.556 157.523 203.486V203.654C157.523 205.474 156.361 206.104 155.423 206.104ZM154.443 201.638C154.485 201.008 154.891 200.378 155.983 200.378C157.019 200.378 157.523 200.896 157.523 202.226V202.548C155.871 202.604 154.723 202.744 153.953 203.15C153.197 203.528 152.847 204.2 152.847 205.012C152.847 206.328 153.715 207.126 155.185 207.126C156.277 207.126 157.159 206.622 157.551 205.754H157.579C157.705 206.636 158.097 207.056 159.273 207.056H159.427V206.034C158.881 206.02 158.755 205.782 158.755 205.194V202.184C158.755 200.21 157.859 199.44 156.025 199.44C154.261 199.44 153.267 200.336 153.239 201.638H154.443ZM160.89 207H162.598V205.292H160.89V207Z" fill="#3B3B3A"/>
<g clip-path="url(#clip0)">
<path fill-rule="evenodd" clip-rule="evenodd" d="M17.1464 315.146C17.3417 314.951 17.6583 314.951 17.8536 315.146L25 322.293L32.1464 315.146C32.3417 314.951 32.6583 314.951 32.8536 315.146C33.0488 315.342 33.0488 315.658 32.8536 315.854L25.3536 323.354C25.1583 323.549 24.8417 323.549 24.6464 323.354L17.1464 315.854C16.9512 315.658 16.9512 315.342 17.1464 315.146Z" fill="#656664"/>
</g>
<g clip-path="url(#clip1)">
<path fill-rule="evenodd" clip-rule="evenodd" d="M17.1464 263.146C17.3417 262.951 17.6583 262.951 17.8536 263.146L25 270.293L32.1464 263.146C32.3417 262.951 32.6583 262.951 32.8536 263.146C33.0488 263.342 33.0488 263.658 32.8536 263.854L25.3536 271.354C25.1583 271.549 24.8417 271.549 24.6464 271.354L17.1464 263.854C16.9512 263.658 16.9512 263.342 17.1464 263.146Z" fill="#656664"/>
</g>
<g clip-path="url(#clip2)">
<path fill-rule="evenodd" clip-rule="evenodd" d="M32.8536 88.8536C32.6583 89.0488 32.3417 89.0488 32.1464 88.8536L25 81.7071L17.8536 88.8536C17.6583 89.0488 17.3417 89.0488 17.1464 88.8536C16.9512 88.6583 16.9512 88.3417 17.1464 88.1464L24.6464 80.6464C24.8417 80.4512 25.1583 80.4512 25.3536 80.6464L32.8536 88.1464C33.0488 88.3417 33.0488 88.6583 32.8536 88.8536Z" fill="#656664"/>
</g>
<defs>
<filter id="filter0_i" x="1" y="1" width="381" height="56" filterUnits="userSpaceOnUse" color-interpolation-filters="sRGB">
<feFlood flood-opacity="0" result="BackgroundImageFix"/>
<feBlend mode="normal" in="SourceGraphic" in2="BackgroundImageFix" result="shape"/>
<feColorMatrix in="SourceAlpha" type="matrix" values="0 0 0 0 0 0 0 0 0 0 0 0 0 0 0 0 0 0 127 0" result="hardAlpha"/>
<feOffset dy="-1"/>
<feComposite in2="hardAlpha" operator="arithmetic" k2="-1" k3="1"/>
<feColorMatrix type="matrix" values="0 0 0 0 0.898039 0 0 0 0 0.890196 0 0 0 0 0.890196 0 0 0 1 0"/>
<feBlend mode="normal" in2="shape" result="effect1_innerShadow"/>
</filter>
<filter id="filter1_i" x="1" y="57" width="381" height="180" filterUnits="userSpaceOnUse" color-interpolation-filters="sRGB">
<feFlood flood-opacity="0" result="BackgroundImageFix"/>
<feBlend mode="normal" in="SourceGraphic" in2="BackgroundImageFix" result="shape"/>
<feColorMatrix in="SourceAlpha" type="matrix" values="0 0 0 0 0 0 0 0 0 0 0 0 0 0 0 0 0 0 127 0" result="hardAlpha"/>
<feOffset dy="-1"/>
<feComposite in2="hardAlpha" operator="arithmetic" k2="-1" k3="1"/>
<feColorMatrix type="matrix" values="0 0 0 0 0.898039 0 0 0 0 0.890196 0 0 0 0 0.890196 0 0 0 1 0"/>
<feBlend mode="normal" in2="shape" result="effect1_innerShadow"/>
</filter>
<filter id="filter2_i" x="1" y="237" width="381" height="56" filterUnits="userSpaceOnUse" color-interpolation-filters="sRGB">
<feFlood flood-opacity="0" result="BackgroundImageFix"/>
<feBlend mode="normal" in="SourceGraphic" in2="BackgroundImageFix" result="shape"/>
<feColorMatrix in="SourceAlpha" type="matrix" values="0 0 0 0 0 0 0 0 0 0 0 0 0 0 0 0 0 0 127 0" result="hardAlpha"/>
<feOffset dy="-1"/>
<feComposite in2="hardAlpha" operator="arithmetic" k2="-1" k3="1"/>
<feColorMatrix type="matrix" values="0 0 0 0 0.898039 0 0 0 0 0.890196 0 0 0 0 0.890196 0 0 0 1 0"/>
<feBlend mode="normal" in2="shape" result="effect1_innerShadow"/>
</filter>
<clipPath id="clip0">
<rect width="16" height="16" fill="white" transform="translate(17 311)"/>
</clipPath>
<clipPath id="clip1">
<rect width="16" height="16" fill="white" transform="translate(17 259)"/>
</clipPath>
<clipPath id="clip2">
<rect width="16" height="16" fill="white" transform="translate(33 93) rotate(-180)"/>
</clipPath>
</defs>
</svg>
