<svg width="24" height="24" viewBox="0 0 24 24" fill="currentColor" xmlns="http://www.w3.org/2000/svg">
    <path fill-rule="evenodd" clip-rule="evenodd"
        d="M9.5455 3.5C6.20666 3.5 3.5 6.20666 3.5 9.5455C3.5 12.8843 6.20666 15.591 9.5455 15.591C12.8843 15.591 15.591 12.8843 15.591 9.5455C15.591 6.20666 12.8843 3.5 9.5455 3.5ZM2.5 9.5455C2.5 5.65438 5.65438 2.5 9.5455 2.5C13.4366 2.5 16.591 5.65438 16.591 9.5455C16.591 13.4366 13.4366 16.591 9.5455 16.591C5.65438 16.591 2.5 13.4366 2.5 9.5455Z" />
    <path fill-rule="evenodd" clip-rule="evenodd"
        d="M14.101 14.1008C14.2963 13.9055 14.6129 13.9055 14.8081 14.1008L21.3536 20.6463C21.5489 20.8416 21.5489 21.1581 21.3536 21.3534C21.1584 21.5487 20.8418 21.5487 20.6465 21.3534L14.101 14.8079C13.9058 14.6126 13.9058 14.2961 14.101 14.1008Z" />
</svg>
